<svg width="559" height="714" viewBox="0 0 559 714" fill="none" xmlns="http://www.w3.org/2000/svg">
<path d="M177.551 655.195C165.038 513.377 141.346 227.24 146.685 217.229C153.326 204.777 202.097 80.8042 301.219 53.2863H303.132L301.952 31.6148L301.529 14.5133L301.219 2L330.214 2L329.38 16.8074L328.545 31.6148L327.324 53.2863H332.716C368.588 69.8378 449.007 125.798 483.71 217.229C475.368 363.218 458.35 655.195 457.015 655.195H177.551Z" fill="#D9D9D9"/>
<path d="M302.684 52.8875C302.195 53.0181 301.706 53.151 301.219 53.2863M301.219 53.2863C202.097 80.8042 153.326 204.777 146.685 217.229C141.346 227.24 165.038 513.377 177.551 655.195C270.15 655.195 455.681 655.195 457.015 655.195C458.35 655.195 475.368 363.218 483.71 217.229C449.007 125.798 368.588 69.8378 332.716 53.2863H301.219ZM301.219 2L330.214 2L329.38 16.8074L328.545 31.6148L327.324 53.2863H303.132L301.952 31.6148L301.529 14.5133L301.219 2Z" stroke="black" stroke-width="3.33688"/>
<path d="M316.031 70.4063L301.218 93.7644H332.716L316.031 70.4063Z" fill="#101010"/>
<path d="M349.4 93.7644L336.887 77.9142L371.09 93.7644H349.4Z" fill="#101010"/>
<path d="M283.497 93.7644L291.839 77.9142L261.807 92.096L283.497 93.7644Z" fill="#101010"/>
<path d="M274.32 106.278H245.123C238.449 106.278 212.31 136.31 200.075 151.326C218.149 151.048 254.132 150.158 253.465 148.823C252.797 147.488 267.09 119.903 274.32 106.278Z" fill="#101010"/>
<path d="M268.481 148.823L291.839 106.278H340.224L356.908 143.818L268.481 148.823Z" fill="#101010"/>
<path d="M372.758 142.149C374.093 140.815 362.748 119.903 356.908 109.615H391.111C393.781 109.615 411.689 129.636 420.309 139.647C403.903 141.037 371.424 143.484 372.758 142.149Z" fill="#101010"/>
<path d="M247.625 161.336L190.064 164.673L166.706 212.224H230.107L247.625 161.336Z" fill="#101010"/>
<path d="M362.748 156.331L265.144 161.336L245.123 212.224L386.94 212.224C388.275 212.224 371.368 174.962 362.748 156.331Z" fill="#101010"/>
<path d="M400.288 212.224C400.955 210.222 386.106 172.459 378.598 153.828C394.726 152.994 427.483 151.326 429.485 151.326C431.488 151.326 454.234 191.924 465.357 212.224C443.389 213.058 399.62 214.226 400.288 212.224Z" fill="#101010"/>
<path d="M230.107 226.406H164.203V310.662L233.443 314.833L230.107 226.406Z" fill="#101010"/>
<path d="M386.94 226.406L245.123 226.406L245.123 314.833L384.437 324.844L386.94 226.406Z" fill="#101010"/>
<path d="M396.951 324.844L400.288 226.406L467.86 226.406L465.357 329.015L396.951 324.844Z" fill="#101010"/>
<path d="M172.545 435.795L164.203 324.844L233.443 327.346L238.449 438.298L172.545 435.795Z" fill="#101010"/>
<path d="M384.437 337.357L245.123 329.015L252.631 438.298L377.764 440.8L384.437 337.357Z" fill="#101010"/>
<path d="M391.945 440.8L396.951 337.357L465.357 342.362L459.517 444.137L391.945 440.8Z" fill="#101010"/>
<path d="M240.951 449.143H172.545L177.551 550.918L246.791 548.415L240.951 449.143Z" fill="#101010"/>
<path d="M377.764 453.314L252.631 449.143L259.304 548.415H371.09L377.764 453.314Z" fill="#101010"/>
<path d="M389.443 453.314L384.437 548.415H452.844L459.517 456.651L389.443 453.314Z" fill="#101010"/>
<path d="M249.294 562.597H177.551L182.556 624.329H252.631L249.294 562.597Z" fill="#101010"/>
<path d="M371.09 560.928H259.304L265.144 624.329L365.25 628.5L371.09 560.928Z" fill="#101010"/>
<path d="M377.764 628.5L381.101 560.928L452.844 558.426L445.336 628.5H377.764Z" fill="#101010"/>
<path d="M316.031 70.4063L301.218 93.7644H332.716L316.031 70.4063Z" stroke="black" stroke-width="3.33688"/>
<path d="M349.4 93.7644L336.887 77.9142L371.09 93.7644H349.4Z" stroke="black" stroke-width="3.33688"/>
<path d="M283.497 93.7644L291.839 77.9142L261.807 92.096L283.497 93.7644Z" stroke="black" stroke-width="3.33688"/>
<path d="M274.32 106.278H245.123C238.449 106.278 212.31 136.31 200.075 151.326C218.149 151.048 254.132 150.158 253.465 148.823C252.797 147.488 267.09 119.903 274.32 106.278Z" stroke="black" stroke-width="3.33688"/>
<path d="M268.481 148.823L291.839 106.278H340.224L356.908 143.818L268.481 148.823Z" stroke="black" stroke-width="3.33688"/>
<path d="M372.758 142.149C374.093 140.815 362.748 119.903 356.908 109.615H391.111C393.781 109.615 411.689 129.636 420.309 139.647C403.903 141.037 371.424 143.484 372.758 142.149Z" stroke="black" stroke-width="3.33688"/>
<path d="M247.625 161.336L190.064 164.673L166.706 212.224H230.107L247.625 161.336Z" stroke="black" stroke-width="3.33688"/>
<path d="M362.748 156.331L265.144 161.336L245.123 212.224L386.94 212.224C388.275 212.224 371.368 174.962 362.748 156.331Z" stroke="black" stroke-width="3.33688"/>
<path d="M400.288 212.224C400.955 210.222 386.106 172.459 378.598 153.828C394.726 152.994 427.483 151.326 429.485 151.326C431.488 151.326 454.234 191.924 465.357 212.224C443.389 213.058 399.62 214.226 400.288 212.224Z" stroke="black" stroke-width="3.33688"/>
<path d="M230.107 226.406H164.203V310.662L233.443 314.833L230.107 226.406Z" stroke="black" stroke-width="3.33688"/>
<path d="M386.94 226.406L245.123 226.406L245.123 314.833L384.437 324.844L386.94 226.406Z" stroke="black" stroke-width="3.33688"/>
<path d="M396.951 324.844L400.288 226.406L467.86 226.406L465.357 329.015L396.951 324.844Z" stroke="black" stroke-width="3.33688"/>
<path d="M172.545 435.795L164.203 324.844L233.443 327.346L238.449 438.298L172.545 435.795Z" stroke="black" stroke-width="3.33688"/>
<path d="M384.437 337.357L245.123 329.015L252.631 438.298L377.764 440.8L384.437 337.357Z" stroke="black" stroke-width="3.33688"/>
<path d="M391.945 440.8L396.951 337.357L465.357 342.362L459.517 444.137L391.945 440.8Z" stroke="black" stroke-width="3.33688"/>
<path d="M240.951 449.143H172.545L177.551 550.918L246.791 548.415L240.951 449.143Z" stroke="black" stroke-width="3.33688"/>
<path d="M377.764 453.314L252.631 449.143L259.304 548.415H371.09L377.764 453.314Z" stroke="black" stroke-width="3.33688"/>
<path d="M389.443 453.314L384.437 548.415H452.844L459.517 456.651L389.443 453.314Z" stroke="black" stroke-width="3.33688"/>
<path d="M249.294 562.597H177.551L182.556 624.329H252.631L249.294 562.597Z" stroke="black" stroke-width="3.33688"/>
<path d="M371.09 560.928H259.304L265.144 624.329L365.25 628.5L371.09 560.928Z" stroke="black" stroke-width="3.33688"/>
<path d="M377.764 628.5L381.101 560.928L452.844 558.426L445.336 628.5H377.764Z" stroke="black" stroke-width="3.33688"/>
<ellipse cx="291.174" cy="681.778" rx="267.713" ry="31.6218" fill="#CBCBCB"/>
<path d="M75.3355 642.079C80.1001 635.154 85.2037 627.737 87.1266 615.718C87.6985 618.396 87.3878 621.268 86.5394 624.365C85.5822 627.859 83.9675 631.553 82.2425 635.499C81.8896 636.307 81.532 637.125 81.1745 637.954C77.1243 647.347 73.1434 658.016 76.9675 669.666L65.2688 668.158C65.4309 656.618 70.0581 649.751 75.1508 642.347C75.2123 642.258 75.2739 642.169 75.3355 642.079Z" fill="#B9B9B9" stroke="black" stroke-width="1.42923"/>
<path d="M60.988 654.287C56.2494 650.121 51.0683 645.567 49.1235 638.154C48.9336 638.663 48.8421 639.179 48.8308 639.703C48.8078 640.76 49.1095 641.898 49.6694 643.134C50.6091 645.209 52.1964 647.407 53.9213 649.794C54.2759 650.285 54.6364 650.784 54.9983 651.292C57.087 654.222 59.193 657.408 60.2042 660.791C61.1194 663.854 61.1386 667.082 59.4895 670.422L70.9689 669.527C70.6923 662.938 66.276 658.937 61.2131 654.485C61.1382 654.419 61.0632 654.353 60.988 654.287Z" fill="#B9B9B9" stroke="black" stroke-width="1.42923"/>
<path d="M82.4065 654.287C87.1452 650.121 92.3262 645.567 94.271 638.154C94.461 638.663 94.5524 639.179 94.5638 639.703C94.5867 640.76 94.285 641.898 93.7251 643.134C92.7855 645.209 91.1982 647.407 89.4732 649.794C89.1186 650.285 88.7581 650.784 88.3963 651.292C86.3075 654.222 84.2015 657.408 83.1903 660.791C82.2751 663.854 82.2559 667.082 83.905 670.422L72.4256 669.527C72.7023 662.938 77.1186 658.937 82.1814 654.485C82.2563 654.419 82.3314 654.353 82.4065 654.287Z" fill="#B9B9B9" stroke="black" stroke-width="1.42923"/>
<path d="M86.1417 663.294C104.665 657.119 132.308 630.521 94.6911 573.526C115.51 590.182 144.441 631.713 98.5178 667.568C106.266 666.618 128.033 655.599 153.111 619.122C178.189 582.646 140.762 537.43 118.914 519.381C140.287 529.83 181.323 561.272 174.484 603.449C167.645 645.625 118.439 665.668 94.6911 670.418C56.2195 686.092 16.2231 644.77 6.3488 634.796C-1.55062 626.817 9.64022 588.189 16.2231 569.872C11.1868 601.89 18.1895 664.426 86.1417 663.294Z" fill="#D9D9D9"/>
<path d="M16.3228 569.252C16.2891 569.457 16.2558 569.664 16.2231 569.872M94.6911 670.418C56.2195 686.092 16.2231 644.77 6.3488 634.796C-1.55062 626.817 9.64022 588.189 16.2231 569.872M94.6911 670.418C96.0207 669.472 97.2958 668.522 98.5178 667.568M94.6911 670.418C118.439 665.668 167.645 645.625 174.484 603.449C181.323 561.272 140.287 529.83 118.914 519.381C140.762 537.43 178.189 582.646 153.111 619.122C128.033 655.599 106.266 666.618 98.5178 667.568M16.2231 569.872C11.1868 601.89 18.1895 664.426 86.1417 663.294C104.665 657.119 132.308 630.521 94.6911 573.526C115.51 590.182 144.441 631.713 98.5178 667.568" stroke="black" stroke-width="5.6995"/>
<path d="M379.666 641.92C384.226 630.521 399.615 640.97 406.739 647.619C419.278 652.179 477.508 641.92 505.055 636.22C506.48 631.471 510.47 619.977 515.03 611.998C520.729 602.023 534.978 613.422 540.677 621.972C546.377 630.521 523.579 641.92 532.128 644.77C540.677 647.619 543.527 663.293 534.978 671.842C528.138 678.682 518.829 666.143 515.03 659.018C478.933 661.868 405.884 669.278 402.464 676.117C398.19 684.666 391.065 681.816 385.366 676.117C380.806 671.557 387.266 665.668 391.065 663.293C388.691 662.818 383.086 661.298 379.666 659.018C375.392 656.169 373.967 656.169 379.666 641.92Z" fill="#D9D9D9" stroke="black" stroke-width="5.6995"/>
<path d="M251.427 522.23C228.629 522.23 208.68 545.028 201.556 556.427C198.136 556.427 202.981 621.022 205.831 653.319C218.18 651.894 243.732 651.039 247.152 659.019C250.572 666.998 248.577 676.592 247.152 680.392H264.251L285.624 667.568C291.323 664.148 306.047 684.191 312.696 694.64H328.37L316.971 667.568L328.37 684.666H341.194V659.019L345.469 676.117H355.443V667.568L365.417 663.293C362.567 654.269 358.577 636.221 365.417 636.221C373.966 636.221 375.391 624.822 381.09 617.697C386.79 610.573 371.116 603.448 365.417 599.174C359.717 594.899 372.541 576.376 365.417 556.427C358.292 536.479 341.194 540.754 316.971 529.355C292.748 517.956 279.924 522.23 251.427 522.23Z" fill="#D9D9D9" stroke="black" stroke-width="5.6995"/>
<path d="M309.846 636.221C306.426 632.802 309.371 621.498 311.271 616.273C315.546 619.123 331.219 626.247 329.794 630.522C328.37 634.797 319.82 630.522 321.245 634.797C322.67 639.071 314.121 640.496 309.846 636.221Z" fill="#606060" stroke="black" stroke-width="5.6995"/>
<path d="M238.603 654.744C239.553 655.219 242.593 654.459 247.153 647.619C251.71 640.783 218.681 591.613 201.577 567.855C202.986 598.636 202.564 655.502 207.256 651.894C211.864 648.351 231.479 653.319 238.603 654.744Z" fill="#ADADAD"/>
<path d="M201.557 567.826C201.563 567.836 201.57 567.845 201.577 567.855M201.577 567.855C218.681 591.613 251.71 640.783 247.153 647.619C242.593 654.459 239.553 655.219 238.603 654.744C231.479 653.319 211.864 648.351 207.256 651.894C202.564 655.502 202.986 598.636 201.577 567.855Z" stroke="black" stroke-width="5.6995"/>
<path d="M253.184 612.499C252.204 610.938 252.165 608.971 253.072 607.397C257.902 599.02 263.086 593.804 273.745 587.086C275.355 586.071 277.323 586.019 278.849 586.905C285.772 590.926 289.865 595.275 294.306 601.624C296.112 604.207 295.22 608.102 292.027 610.03C284.741 614.431 279.901 618.938 276.046 625.258C273.876 628.816 269.85 629.768 267.371 627.965C261.651 623.807 257.583 619.511 253.184 612.499Z" fill="#606060" stroke="black" stroke-width="5.6995"/>
<path d="M318.912 569.067C319.129 568.183 319.802 567.485 320.663 567.236C331.088 564.224 338.745 564.16 352.554 567.435C353.476 567.654 354.174 568.326 354.415 569.153C357.178 578.61 356.701 585.294 354.754 594.962C354.441 596.512 352.748 597.604 350.945 597.089C339.755 593.895 331.798 593.654 322.308 596.666C320.288 597.307 318.527 596.14 318.232 594.662C316.452 585.743 316.45 579.084 318.912 569.067Z" fill="#606060" stroke="black" stroke-width="5.6995"/>
<rect x="123.19" y="647.62" width="45.0779" height="34.197" rx="2.84975" fill="#D9D9D9" stroke="black" stroke-width="5.6995"/>
<rect x="131.739" y="650.47" width="34.197" height="28.4975" rx="2.84975" fill="#BDBDBD" stroke="black" stroke-width="5.6995"/>
<rect x="165.936" y="644.772" width="51.2955" height="37.0468" rx="2.84975" fill="#D9D9D9" stroke="black" stroke-width="5.6995"/>
<rect x="174.485" y="647.621" width="39.8965" height="31.3473" rx="2.84975" fill="#BDBDBD" stroke="black" stroke-width="5.6995"/>
<rect x="86.1417" y="656.17" width="34.197" height="25.6478" rx="2.84975" fill="#D9D9D9" stroke="black" stroke-width="5.6995"/>
<rect x="91.8419" y="659.02" width="25.6478" height="19.9483" rx="2.84975" fill="#BDBDBD" stroke="black" stroke-width="5.6995"/>
<path d="M488.565 655.299C493.33 648.375 498.433 640.957 500.356 628.938C500.928 631.617 500.617 634.488 499.769 637.585C498.812 641.079 497.197 644.773 495.472 648.72C495.119 649.527 494.761 650.345 494.404 651.174C490.354 660.567 486.373 671.236 490.197 682.886L478.498 681.378C478.66 669.838 483.288 662.971 488.38 655.568C488.442 655.478 488.503 655.389 488.565 655.299Z" fill="#CACACA" stroke="black" stroke-width="1.42923"/>
<path d="M474.218 667.507C469.479 663.342 464.298 658.787 462.353 651.374C462.163 651.884 462.072 652.399 462.06 652.924C462.037 653.98 462.339 655.118 462.899 656.355C463.839 658.429 465.426 660.627 467.151 663.015C467.505 663.506 467.866 664.005 468.228 664.512C470.317 667.443 472.422 670.628 473.434 674.011C474.349 677.074 474.368 680.302 472.719 683.642L484.198 682.747C483.922 676.158 479.505 672.157 474.443 667.705C474.368 667.639 474.293 667.573 474.218 667.507Z" fill="#CACACA" stroke="black" stroke-width="1.42923"/>
<path d="M495.636 667.507C500.375 663.342 505.556 658.787 507.5 651.374C507.69 651.884 507.782 652.399 507.793 652.924C507.816 653.98 507.515 655.118 506.955 656.355C506.015 658.429 504.428 660.627 502.703 663.015C502.348 663.506 501.988 664.005 501.626 664.512C499.537 667.443 497.431 670.628 496.42 674.011C495.505 677.074 495.485 680.302 497.135 683.642L485.655 682.747C485.932 676.158 490.348 672.157 495.411 667.705C495.486 667.639 495.561 667.573 495.636 667.507Z" fill="#CACACA" stroke="black" stroke-width="1.42923"/>
<path d="M186.819 674.238C191.583 667.314 196.687 659.896 198.61 647.877C199.182 650.555 198.871 653.427 198.023 656.524C197.066 660.018 195.451 663.712 193.726 667.659C193.373 668.466 193.015 669.284 192.658 670.113C188.608 679.506 184.627 690.175 188.451 701.825L176.752 700.317C176.914 688.777 181.542 681.91 186.634 674.507C186.696 674.417 186.757 674.328 186.819 674.238Z" fill="#C0C0C0" stroke="black" stroke-width="1.42923"/>
<path d="M172.471 686.446C167.733 682.281 162.552 677.726 160.607 670.313C160.417 670.823 160.326 671.338 160.314 671.863C160.291 672.919 160.593 674.057 161.153 675.293C162.092 677.368 163.68 679.566 165.405 681.954C165.759 682.445 166.12 682.944 166.482 683.451C168.57 686.382 170.676 689.567 171.688 692.95C172.603 696.013 172.622 699.241 170.973 702.581L182.452 701.686C182.176 695.097 177.759 691.096 172.697 686.644C172.622 686.578 172.547 686.512 172.471 686.446Z" fill="#C0C0C0" stroke="black" stroke-width="1.42923"/>
<path d="M193.89 686.446C198.629 682.281 203.81 677.726 205.754 670.313C205.944 670.823 206.036 671.338 206.047 671.863C206.07 672.919 205.768 674.057 205.209 675.293C204.269 677.368 202.682 679.566 200.957 681.954C200.602 682.445 200.242 682.944 199.88 683.451C197.791 686.382 195.685 689.567 194.674 692.95C193.759 696.013 193.739 699.241 195.388 702.581L183.909 701.686C184.186 695.097 188.602 691.096 193.665 686.644C193.74 686.578 193.815 686.512 193.89 686.446Z" fill="#C0C0C0" stroke="black" stroke-width="1.42923"/>
</svg>
