<svg width="175" height="175" viewBox="0 0 175 175" fill="none" xmlns="http://www.w3.org/2000/svg">
<circle cx="87.5" cy="87.5" r="86.8881" fill="#333333" stroke="black" stroke-width="1.22378"/>
<circle cx="87.6527" cy="87.3466" r="80.9222" fill="#252525" stroke="black" stroke-width="1.22378"/>
<path d="M68.0541 137.131C67.81 138.477 63.3753 148.61 61.1885 153.508C68.6644 157.181 67.1387 160.854 68.0541 159.783C68.9695 158.712 76.598 145.243 76.598 143.712C76.598 142.181 79.8019 140.039 81.0225 140.039C81.9989 140.039 82.6499 138.1 82.8533 137.131L82.0905 136.212H76.598L78.1237 134.835L73.394 133.151V134.835C72.3769 133.661 70.0375 131.161 68.8169 130.549C67.2912 129.784 68.3592 135.447 68.0541 137.131Z" fill="#D9D9D9"/>
<path d="M77.6659 151.824C78.1542 150.722 82.243 142.488 84.2264 138.508C85.5995 138.202 86.2098 138.814 87.1252 139.273C88.0407 139.733 88.1932 141.722 87.8881 141.875C87.5829 142.028 87.1252 143.1 86.8201 143.559C86.515 144.018 83.311 149.681 83.1584 149.987C83.0059 150.294 79.9545 154.12 79.3442 154.579C78.7339 155.038 76.2928 158.712 75.8351 159.783C75.3774 160.854 74.3094 160.701 73.6992 160.395C73.0889 160.089 72.9363 158.712 73.394 158.712C73.8517 158.712 77.0557 153.202 77.6659 151.824Z" fill="#D9D9D9"/>
<path d="M82.8533 135.447C82.6092 135.08 80.5139 134.478 79.4968 134.222C78.8865 134.062 80.5648 132.845 81.0225 132.692C81.4802 132.539 81.6327 132.08 81.9379 131.62C82.243 131.161 82.8533 131.774 83.4636 131.774C84.0739 131.774 84.9893 132.539 85.2944 132.845C85.5995 133.151 85.2944 134.222 85.2944 134.835C85.2944 135.447 83.1584 135.906 82.8533 135.447Z" fill="#D9D9D9"/>
<path d="M86.3624 134.529C85.8742 134.406 86.0573 133.559 86.2098 133.151C86.4132 133.151 86.9116 133.12 87.2778 132.998C87.7355 132.845 89.8715 132.386 90.4818 132.08C91.092 131.774 92.4652 132.08 93.0754 132.08C93.6857 132.08 93.8383 131.774 94.1434 131.467C94.4486 131.161 94.4486 130.09 94.9063 130.09C95.364 130.09 96.1268 131.008 96.7371 131.774C97.3474 132.539 97.8051 132.845 97.6525 133.763C97.4999 134.682 95.0588 135.447 94.1434 136.059C93.228 136.671 90.4818 136.518 90.0241 136.518C89.5663 136.518 88.1932 136.518 88.0407 136.059C87.8881 135.6 86.9727 134.682 86.3624 134.529Z" fill="#D9D9D9"/>
<path d="M76.4454 133.61C75.469 133.488 74.3094 132.131 73.8517 131.467L74.1569 131.008C74.5637 131.365 75.4384 132.08 75.6825 132.08C75.9877 132.08 75.6826 131.467 75.3774 131.008C75.0723 130.549 75.2248 129.784 75.0723 129.019C74.9197 128.253 75.0723 126.263 75.0723 125.651C75.0723 125.039 75.8351 125.345 76.598 125.345C77.3608 125.345 77.6659 125.957 78.1237 126.263C78.5814 126.57 78.4288 128.1 78.4288 128.559C78.4288 129.019 78.5814 129.172 79.4968 129.784C80.4122 130.396 80.8699 131.314 81.0225 131.467C81.175 131.62 80.2596 132.692 79.4968 132.998C78.7339 133.304 77.6659 133.763 76.4454 133.61Z" fill="#D9D9D9"/>
<path d="M85.5995 130.09C85.5995 129.172 90.4818 125.651 91.092 125.345C92.0583 125.855 94.0824 126.906 94.4486 127.029C94.9063 127.182 94.6011 129.019 94.4486 129.325C94.296 129.631 93.8383 130.396 93.3806 131.008C92.9229 131.62 92.6177 131.467 91.8549 131.467C91.092 131.467 89.8715 131.927 89.4138 132.08C88.9561 132.233 86.3624 132.386 86.2098 132.08C86.0573 131.774 85.5995 131.008 85.5995 130.09Z" fill="#D9D9D9"/>
<path d="M79.0391 128.559V125.345C79.5476 124.682 80.6563 123.355 81.0225 123.355C81.3886 123.355 80.5648 125.294 80.1071 126.263C81.0225 125.09 82.8533 122.621 82.8533 122.131C82.8533 121.519 81.0225 123.049 81.0225 122.437C81.0225 121.825 82.5482 119.835 82.8533 119.835C83.1584 119.835 85.1418 119.682 85.9047 119.529C86.6675 119.376 88.0407 120.6 88.0407 121.366C88.0407 122.131 87.7355 125.651 87.7355 126.263C87.7355 126.876 84.6841 129.784 84.0739 130.243C83.4636 130.702 81.0225 130.549 80.8699 130.09C80.7478 129.723 79.5985 128.916 79.0391 128.559Z" fill="#D9D9D9"/>
<path d="M71.8683 130.549C72.8448 131.161 74.0043 129.988 74.462 129.325V127.488C74.462 127.182 73.8517 125.345 73.8517 124.733C73.8517 124.121 73.0889 124.121 72.6312 123.662C72.1735 123.202 72.9363 120.907 73.0889 120.141C73.2414 119.376 73.8517 118.611 73.8517 118.152C73.8517 117.692 73.8517 114.478 74.1569 113.407C74.462 112.335 73.8517 111.876 73.5466 111.111C73.2414 110.346 72.6312 112.641 72.6312 112.335V111.264V108.968C72.6312 108.203 71.5632 107.591 71.258 107.284C70.9529 106.978 70.0375 107.437 69.4272 107.591C68.8169 107.744 68.2067 108.662 67.9015 108.968C67.5964 109.274 67.9015 110.805 68.2067 111.876C68.5118 112.948 68.5118 124.274 68.2067 125.345C67.9015 126.416 68.2067 127.029 68.2067 127.794C68.2067 128.559 70.6478 129.784 71.8683 130.549Z" fill="#D9D9D9"/>
<path d="M75.0723 113.407C75.3164 112.672 76.6997 112.182 77.3608 112.029C78.2762 112.59 80.046 113.713 79.8019 113.713C79.4968 113.713 79.9545 115.856 80.4122 116.009C80.8699 116.162 81.3276 117.386 81.3276 118.152C81.3276 118.917 80.4122 119.529 80.1071 120.447C79.8019 121.366 79.8019 122.437 79.4968 123.049C79.1916 123.662 78.1237 124.274 78.1237 124.733C78.1237 125.192 75.0723 124.427 74.7671 124.274C74.462 124.121 73.0889 122.743 73.2414 121.519C73.394 120.294 73.6991 119.988 74.1568 119.529L74.1569 119.529C74.6146 119.07 74.462 117.386 74.462 116.621C74.462 115.856 74.7671 114.325 75.0723 113.407Z" fill="#D9D9D9"/>
<path d="M99.7885 135.141C99.3003 135.386 98.7714 135.039 98.5679 134.835C98.812 134.59 98.6696 132.488 98.5679 131.467C98.4662 131.672 98.1407 132.018 97.6525 131.774C97.0422 131.467 97.6525 131.008 97.1948 130.702C96.7371 130.396 96.432 130.243 96.432 129.784C96.432 129.325 97.0422 129.631 97.1948 129.325C97.3474 129.018 98.1102 129.325 98.2628 129.019C98.4154 128.713 98.8731 128.253 99.0256 127.794C99.1782 127.335 100.094 127.029 100.856 126.723C101.619 126.417 102.687 124.427 103.45 123.662C104.213 122.896 104.518 122.896 104.671 122.59C104.823 122.284 104.976 121.672 105.434 120.907C105.891 120.141 106.959 120.6 107.264 120.6C107.57 120.6 108.485 121.825 108.79 121.978C109.095 122.131 109.553 122.743 109.553 123.662C109.553 124.58 109.248 124.58 108.943 125.345C108.637 126.11 108.18 126.263 107.722 126.263C107.264 126.263 106.044 128.253 105.434 128.866L105.433 128.866C104.822 129.479 103.297 131.009 102.382 132.233C101.467 133.457 100.399 134.835 99.7885 135.141Z" fill="#D9D9D9"/>
<path d="M108.027 119.223C107.264 118.458 108.79 117.539 108.943 117.386H111.384C111.079 117.284 110.407 117.019 110.163 116.774C109.858 116.468 111.079 114.631 111.384 114.172C111.689 113.713 112.604 114.478 113.062 114.631C113.52 114.784 113.977 116.162 113.672 117.08C113.367 117.998 112.604 119.682 112.299 120.141C111.994 120.6 111.536 123.662 111.384 124.733C111.231 125.804 110.163 125.651 109.858 125.345C109.614 125.1 109.96 123.713 110.163 123.049C109.96 122.692 109.461 121.917 109.095 121.672C108.729 121.427 108.943 120.549 109.095 120.141C108.993 120.09 108.637 119.835 108.027 119.223Z" fill="#D9D9D9"/>
<path d="M97.4999 128.406C96.6456 129.141 96.0251 128.1 95.8217 127.488V125.957C95.8217 125.651 94.9063 124.733 94.7537 124.58C94.6011 124.427 93.6857 124.733 93.0754 125.039C92.4652 125.345 92.16 124.733 92.3126 123.968C92.4652 123.202 94.1434 122.131 94.1434 121.672C94.1434 121.213 96.2794 120.294 96.7371 120.141C97.1948 119.988 99.6359 115.703 100.094 115.09C100.551 114.478 102.382 112.641 102.382 112.029C102.382 111.417 102.535 110.805 102.535 109.886C102.535 108.968 103.908 108.509 104.366 108.968C104.823 109.427 106.502 110.652 106.807 110.958C107.112 111.264 106.807 112.488 106.807 113.101C106.807 113.713 106.959 115.243 106.807 115.703C106.654 116.162 105.434 116.009 105.128 116.009C104.823 116.009 103.603 117.998 103.45 118.611C103.298 119.223 100.856 122.437 100.399 123.049C99.9411 123.662 99.0256 124.733 99.0256 126.263C99.0256 127.794 98.5679 127.488 97.4999 128.406Z" fill="#D9D9D9"/>
<path d="M107.57 114.631C107.325 113.774 107.671 111.315 107.875 110.193L107.57 109.58C107.57 109.886 107.478 110.499 107.112 110.499C106.654 110.499 105.891 109.427 105.128 108.968C104.366 108.509 104.366 107.897 104.823 107.437C105.281 106.978 106.349 107.284 106.807 107.284C107.173 107.284 109.705 106.06 110.926 105.448C110.265 105.754 108.76 106.397 108.027 106.519C107.112 106.672 107.112 106.213 107.57 105.448C108.027 104.682 110.163 103.764 110.468 103.152C110.773 102.54 112.299 102.08 113.062 101.468C113.825 100.856 114.74 101.162 115.503 101.162C116.266 101.162 116.571 101.927 117.181 102.54C117.792 103.152 117.334 104.835 117.029 105.448C116.724 106.06 113.977 109.886 113.672 110.193C113.367 110.499 111.689 113.101 110.468 113.101C109.248 113.101 111.231 111.57 111.231 111.111C111.231 110.652 110.163 112.029 109.705 112.335C109.248 112.641 109.553 115.09 108.943 115.703C108.332 116.315 107.875 115.703 107.57 114.631Z" fill="#D9D9D9"/>
<path d="M89.2612 122.59C89.4138 121.825 89.4138 119.835 89.5663 119.223C89.4646 119.529 89.1697 120.08 88.8035 119.835C88.3458 119.529 88.0407 119.529 87.1252 118.917C86.2098 118.305 86.3624 118.152 86.2098 118.152C86.0573 118.152 84.8367 118.611 84.379 118.611C83.9213 118.611 83.1584 118.305 82.7007 117.386C82.243 116.468 86.2098 115.703 86.8201 115.09C87.4304 114.478 90.7869 110.499 91.2446 109.886C91.7023 109.274 95.6691 107.591 95.6691 105.448C95.6691 103.305 96.7371 102.54 97.0422 102.234C97.3474 101.927 98.1102 102.54 98.5679 101.774C99.0256 101.009 100.094 101.468 100.399 101.468C100.704 101.468 102.23 103.152 102.535 103.458C102.84 103.764 102.23 106.366 102.23 107.591C102.23 108.815 100.399 109.274 99.3308 109.58C98.2628 109.886 98.4154 111.264 98.1102 111.57C97.8051 111.876 94.7537 116.774 94.4486 117.08C94.1434 117.386 93.228 118.611 93.0754 119.223C92.9229 119.835 93.0754 120.907 93.0754 121.519C93.0754 122.131 92.6177 122.59 92.3126 123.049C92.0075 123.509 91.092 123.662 90.0241 123.662C88.9561 123.662 89.1086 123.355 89.2612 122.59Z" fill="#D9D9D9"/>
<path d="M105.891 93.6623C105.647 94.2745 102.026 96.7745 100.246 97.9479C99.7885 98.254 98.7815 98.8662 98.4154 98.8662C98.0492 98.8662 97.9577 99.8866 97.9577 100.397L100.399 100.856C100.246 100.55 100.033 99.9376 100.399 99.9376C100.856 99.9376 102.687 101.774 102.84 102.54C102.992 103.305 103.45 103.305 103.45 103.764V106.366C103.45 106.733 104.569 106.519 105.128 106.366C105.383 106.315 105.8 105.968 105.434 104.988C105.067 104.009 106.4 102.029 107.112 101.162L105.891 103.458L107.417 103.305C107.824 102.948 108.699 102.142 108.943 101.774C109.248 101.315 112.147 97.9479 112.604 97.4887C113.062 97.0294 114.588 94.8867 114.893 94.4275C115.198 93.9683 115.503 92.8969 115.503 92.2847C115.503 91.6725 114.435 89.9889 114.13 89.3767C113.825 88.7645 111.994 89.3767 111.384 89.3767C110.773 89.3767 109.705 90.142 109.248 90.4481C108.79 90.7542 106.196 92.897 105.891 93.6623Z" fill="#D9D9D9"/>
<path d="M81.0225 113.101C81.0225 112.243 80.4122 111.927 80.1071 111.876V112.947L78.7339 111.876C78.2762 111.774 77.2998 111.509 77.0557 111.264C76.8116 111.019 77.0557 110.652 77.2082 110.499L78.4288 109.886L77.2082 109.886C76.7505 109.886 75.8351 110.958 75.0723 110.958C74.3094 110.958 74.6146 110.499 74.6146 109.886C74.6146 109.274 75.53 107.437 75.8351 107.284C76.1403 107.131 80.1071 103.764 80.7173 103.458C81.2056 103.213 83.5653 100.703 84.6841 99.4784C84.5824 99.7845 84.4705 100.305 84.8367 99.9376C85.2944 99.4784 86.6675 96.2642 86.6675 95.4989C86.6675 94.7336 88.6509 94.4275 89.2612 94.4275C89.8715 94.4275 91.3972 94.5806 91.8549 94.4275C92.3126 94.2745 94.1434 95.652 94.4486 96.4173C94.7537 97.1826 95.2114 97.7948 95.6691 98.5601C96.1268 99.3254 95.9743 100.397 95.0588 101.468C94.1435 102.54 92.3128 102.54 91.855 102.54H91.8549C91.3972 102.54 90.3292 104.07 89.8715 104.223C89.4138 104.376 86.8201 106.978 86.8201 107.591C86.8201 108.203 84.6841 110.958 84.379 111.264C84.0739 111.57 84.0739 113.407 83.9213 114.172C83.7687 114.937 82.7007 114.631 83.0059 114.784C83.311 114.937 83.1584 115.549 82.3956 116.009C81.6327 116.468 81.3276 116.009 80.8699 115.549C80.4122 115.09 81.0225 114.172 81.0225 113.101Z" fill="#D9D9D9"/>
<path d="M89.2612 91.9786C89.2612 91.3664 91.6006 90.295 92.7703 89.8358L98.5679 84.4788C98.5322 84.837 98.4714 85.4166 98.4384 85.6453C98.7814 85.0673 102.84 81.4047 102.84 81.1115C102.84 80.8054 103.45 79.734 103.908 79.5809C104.366 79.4279 105.891 79.2748 106.349 79.1218C106.807 78.9687 106.807 78.9687 107.112 78.3565L107.112 78.3565C107.417 77.7442 108.637 77.7442 109.705 77.7442C110.773 77.7442 111.841 79.5809 111.994 80.1932C112.147 80.8054 111.689 82.336 111.231 82.6421C110.865 82.887 110.57 82.2339 110.468 81.8768V84.6318C110.468 85.1216 109.248 85.5502 108.637 85.7032C108.485 86.0604 108.149 86.8052 108.027 86.9277L104.823 90.1419C104.366 90.6011 101.924 93.2031 101.619 93.9683C101.314 94.7336 99.7885 95.805 99.3308 95.805C98.9646 95.805 98.8731 94.5806 98.8731 93.9683V95.805C98.8731 96.2642 98.4154 97.9479 98.4154 98.1009C98.4154 98.2539 97.0422 98.1009 96.5845 97.9479C96.1268 97.7949 96.2794 95.0397 95.9743 94.5806C95.7301 94.2132 94.8554 93.6112 94.4486 93.3561C94.7537 93.7132 95.4555 94.55 95.8217 95.0397C96.1879 95.5295 95.6691 95.5499 95.364 95.4989C94.7537 94.9887 93.4721 93.9683 93.228 93.9683C92.9229 93.9683 91.092 93.6623 91.092 93.2031C91.092 92.7439 91.8547 92.7439 92.3124 92.7439H92.3126C92.7703 92.7439 91.2446 92.5908 91.092 92.7439C90.9395 92.8969 90.3292 93.3561 89.8715 93.2031C89.4138 93.05 89.2612 92.7439 89.2612 91.9786Z" fill="#D9D9D9"/>
<path d="M74.1569 108.05C74.0911 107.984 74.0072 107.89 73.928 107.785C73.9737 108.016 73.9706 108.236 73.8517 108.356C73.5466 108.662 72.0209 106.978 71.5632 106.825C71.1055 106.672 72.326 106.366 71.8683 106.06C71.4106 105.754 68.5118 106.366 68.2067 106.366C67.9015 106.366 68.2067 104.223 68.8169 103.764C69.4272 103.305 74.462 96.8764 74.462 96.7234C74.462 96.5703 74.6146 94.4275 74.7671 94.1214C74.9197 93.8153 76.1403 92.1316 76.7505 91.5194C77.3608 90.9072 78.4288 91.3664 79.1916 91.5194C79.8019 91.6419 81.2768 92.999 81.9379 93.6622C81.8362 94.1214 81.5412 95.1316 81.175 95.4989C80.7173 95.9581 79.3442 99.7845 79.3442 100.856C79.3442 101.927 76.598 105.295 76.2928 105.448C75.9877 105.601 75.0723 107.284 75.0723 107.591C75.0723 107.835 74.462 107.999 74.1569 108.05Z" fill="#D9D9D9"/>
<path d="M83.0059 80.6523C83.1279 79.3054 83.8704 78.1524 84.2264 77.7442C85.7521 77.4381 86.8201 79.2748 86.6675 79.5809C86.515 79.887 86.0573 83.1013 85.9047 84.0196C85.7521 84.9379 85.2944 90.1419 85.2944 90.9072C85.2944 91.6725 83.7687 92.4378 83.0059 92.2847C82.7936 92.2421 82.6982 92.0748 82.6748 91.851C82.5739 92.5238 82.1997 93.1813 81.9379 93.05C81.6327 92.8969 80.7173 91.5194 79.6493 90.9072C78.5814 90.295 77.9711 90.6011 77.8185 90.4481C77.6659 90.2951 77.5134 89.0705 77.8185 88.9174C78.1237 88.7644 79.3442 87.5399 80.1071 86.9277C80.8699 86.3155 80.2596 84.9379 80.7173 84.6318C81.175 84.3257 82.8533 82.336 83.0059 80.6523Z" fill="#D9D9D9"/>
<path d="M68.0541 137.131C67.81 138.477 63.3753 148.61 61.1885 153.508C68.6644 157.181 67.1387 160.854 68.0541 159.783C68.9695 158.712 76.598 145.243 76.598 143.712C76.598 142.181 79.8019 140.039 81.0225 140.039C81.9989 140.039 82.6499 138.1 82.8533 137.131L82.0905 136.212H76.598L78.1237 134.835L73.394 133.151V134.835C72.3769 133.661 70.0375 131.161 68.8169 130.549C67.2912 129.784 68.3592 135.447 68.0541 137.131Z" stroke="black" stroke-width="0.611888"/>
<path d="M77.6659 151.824C78.1542 150.722 82.243 142.488 84.2264 138.508C85.5995 138.202 86.2098 138.814 87.1252 139.273C88.0407 139.733 88.1932 141.722 87.8881 141.875C87.5829 142.028 87.1252 143.1 86.8201 143.559C86.515 144.018 83.311 149.681 83.1584 149.987C83.0059 150.294 79.9545 154.12 79.3442 154.579C78.7339 155.038 76.2928 158.712 75.8351 159.783C75.3774 160.854 74.3094 160.701 73.6992 160.395C73.0889 160.089 72.9363 158.712 73.394 158.712C73.8517 158.712 77.0557 153.202 77.6659 151.824Z" stroke="black" stroke-width="0.611888"/>
<path d="M82.8533 135.447C82.6092 135.08 80.5139 134.478 79.4968 134.222C78.8865 134.062 80.5648 132.845 81.0225 132.692C81.4802 132.539 81.6327 132.08 81.9379 131.62C82.243 131.161 82.8533 131.774 83.4636 131.774C84.0739 131.774 84.9893 132.539 85.2944 132.845C85.5995 133.151 85.2944 134.222 85.2944 134.835C85.2944 135.447 83.1584 135.906 82.8533 135.447Z" stroke="black" stroke-width="0.611888"/>
<path d="M86.3624 134.529C85.8742 134.406 86.0573 133.559 86.2098 133.151C86.4132 133.151 86.9116 133.12 87.2778 132.998C87.7355 132.845 89.8715 132.386 90.4818 132.08C91.092 131.774 92.4652 132.08 93.0754 132.08C93.6857 132.08 93.8383 131.774 94.1434 131.467C94.4486 131.161 94.4486 130.09 94.9063 130.09C95.364 130.09 96.1268 131.008 96.7371 131.774C97.3474 132.539 97.8051 132.845 97.6525 133.763C97.4999 134.682 95.0588 135.447 94.1434 136.059C93.228 136.671 90.4818 136.518 90.0241 136.518C89.5663 136.518 88.1932 136.518 88.0407 136.059C87.8881 135.6 86.9727 134.682 86.3624 134.529Z" stroke="black" stroke-width="0.611888"/>
<path d="M76.4454 133.61C75.469 133.488 74.3094 132.131 73.8517 131.467L74.1569 131.008C74.5637 131.365 75.4384 132.08 75.6825 132.08C75.9877 132.08 75.6826 131.467 75.3774 131.008C75.0723 130.549 75.2248 129.784 75.0723 129.019C74.9197 128.253 75.0723 126.263 75.0723 125.651C75.0723 125.039 75.8351 125.345 76.598 125.345C77.3608 125.345 77.6659 125.957 78.1237 126.263C78.5814 126.57 78.4288 128.1 78.4288 128.559C78.4288 129.019 78.5814 129.172 79.4968 129.784C80.4122 130.396 80.8699 131.314 81.0225 131.467C81.175 131.62 80.2596 132.692 79.4968 132.998C78.7339 133.304 77.6659 133.763 76.4454 133.61Z" stroke="black" stroke-width="0.611888"/>
<path d="M85.5995 130.09C85.5995 129.172 90.4818 125.651 91.092 125.345C92.0583 125.855 94.0824 126.906 94.4486 127.029C94.9063 127.182 94.6011 129.019 94.4486 129.325C94.296 129.631 93.8383 130.396 93.3806 131.008C92.9229 131.62 92.6177 131.467 91.8549 131.467C91.092 131.467 89.8715 131.927 89.4138 132.08C88.9561 132.233 86.3624 132.386 86.2098 132.08C86.0573 131.774 85.5995 131.008 85.5995 130.09Z" stroke="black" stroke-width="0.611888"/>
<path d="M79.0391 128.559V125.345C79.5476 124.682 80.6563 123.355 81.0225 123.355C81.3886 123.355 80.5648 125.294 80.1071 126.263C81.0225 125.09 82.8533 122.621 82.8533 122.131C82.8533 121.519 81.0225 123.049 81.0225 122.437C81.0225 121.825 82.5482 119.835 82.8533 119.835C83.1584 119.835 85.1418 119.682 85.9047 119.529C86.6675 119.376 88.0407 120.6 88.0407 121.366C88.0407 122.131 87.7355 125.651 87.7355 126.263C87.7355 126.876 84.6841 129.784 84.0739 130.243C83.4636 130.702 81.0225 130.549 80.8699 130.09C80.7478 129.723 79.5985 128.916 79.0391 128.559Z" stroke="black" stroke-width="0.611888"/>
<path d="M71.8683 130.549C72.8448 131.161 74.0043 129.988 74.462 129.325V127.488C74.462 127.182 73.8517 125.345 73.8517 124.733C73.8517 124.121 73.0889 124.121 72.6312 123.662C72.1735 123.202 72.9363 120.907 73.0889 120.141C73.2414 119.376 73.8517 118.611 73.8517 118.152C73.8517 117.692 73.8517 114.478 74.1569 113.407C74.462 112.335 73.8517 111.876 73.5466 111.111C73.2414 110.346 72.6312 112.641 72.6312 112.335V111.264V108.968C72.6312 108.203 71.5632 107.591 71.258 107.284C70.9529 106.978 70.0375 107.437 69.4272 107.591C68.8169 107.744 68.2067 108.662 67.9015 108.968C67.5964 109.274 67.9015 110.805 68.2067 111.876C68.5118 112.948 68.5118 124.274 68.2067 125.345C67.9015 126.416 68.2067 127.029 68.2067 127.794C68.2067 128.559 70.6478 129.784 71.8683 130.549Z" stroke="black" stroke-width="0.611888"/>
<path d="M75.0723 113.407C75.3164 112.672 76.6997 112.182 77.3608 112.029C78.2762 112.59 80.046 113.713 79.8019 113.713C79.4968 113.713 79.9545 115.856 80.4122 116.009C80.8699 116.162 81.3276 117.386 81.3276 118.152C81.3276 118.917 80.4122 119.529 80.1071 120.447C79.8019 121.366 79.8019 122.437 79.4968 123.049C79.1916 123.662 78.1237 124.274 78.1237 124.733C78.1237 125.192 75.0723 124.427 74.7671 124.274C74.462 124.121 73.0889 122.743 73.2414 121.519C73.394 120.294 73.6991 119.988 74.1568 119.529L74.1569 119.529C74.6146 119.07 74.462 117.386 74.462 116.621C74.462 115.856 74.7671 114.325 75.0723 113.407Z" stroke="black" stroke-width="0.611888"/>
<path d="M99.7885 135.141C99.3003 135.386 98.7714 135.039 98.5679 134.835C98.812 134.59 98.6696 132.488 98.5679 131.467C98.4662 131.672 98.1407 132.018 97.6525 131.774C97.0422 131.467 97.6525 131.008 97.1948 130.702C96.7371 130.396 96.432 130.243 96.432 129.784C96.432 129.325 97.0422 129.631 97.1948 129.325C97.3474 129.018 98.1102 129.325 98.2628 129.019C98.4154 128.713 98.8731 128.253 99.0256 127.794C99.1782 127.335 100.094 127.029 100.856 126.723C101.619 126.417 102.687 124.427 103.45 123.662C104.213 122.896 104.518 122.896 104.671 122.59C104.823 122.284 104.976 121.672 105.434 120.907C105.891 120.141 106.959 120.6 107.264 120.6C107.57 120.6 108.485 121.825 108.79 121.978C109.095 122.131 109.553 122.743 109.553 123.662C109.553 124.58 109.248 124.58 108.943 125.345C108.637 126.11 108.18 126.263 107.722 126.263C107.264 126.263 106.044 128.253 105.434 128.866L105.433 128.866C104.822 129.479 103.297 131.009 102.382 132.233C101.467 133.457 100.399 134.835 99.7885 135.141Z" stroke="black" stroke-width="0.611888"/>
<path d="M108.027 119.223C107.264 118.458 108.79 117.539 108.943 117.386H111.384C111.079 117.284 110.407 117.019 110.163 116.774C109.858 116.468 111.079 114.631 111.384 114.172C111.689 113.713 112.604 114.478 113.062 114.631C113.52 114.784 113.977 116.162 113.672 117.08C113.367 117.998 112.604 119.682 112.299 120.141C111.994 120.6 111.536 123.662 111.384 124.733C111.231 125.804 110.163 125.651 109.858 125.345C109.614 125.1 109.96 123.713 110.163 123.049C109.96 122.692 109.461 121.917 109.095 121.672C108.729 121.427 108.943 120.549 109.095 120.141C108.993 120.09 108.637 119.835 108.027 119.223Z" stroke="black" stroke-width="0.611888"/>
<path d="M97.4999 128.406C96.6456 129.141 96.0251 128.1 95.8217 127.488V125.957C95.8217 125.651 94.9063 124.733 94.7537 124.58C94.6011 124.427 93.6857 124.733 93.0754 125.039C92.4652 125.345 92.16 124.733 92.3126 123.968C92.4652 123.202 94.1434 122.131 94.1434 121.672C94.1434 121.213 96.2794 120.294 96.7371 120.141C97.1948 119.988 99.6359 115.703 100.094 115.09C100.551 114.478 102.382 112.641 102.382 112.029C102.382 111.417 102.535 110.805 102.535 109.886C102.535 108.968 103.908 108.509 104.366 108.968C104.823 109.427 106.502 110.652 106.807 110.958C107.112 111.264 106.807 112.488 106.807 113.101C106.807 113.713 106.959 115.243 106.807 115.703C106.654 116.162 105.434 116.009 105.128 116.009C104.823 116.009 103.603 117.998 103.45 118.611C103.298 119.223 100.856 122.437 100.399 123.049C99.9411 123.662 99.0256 124.733 99.0256 126.263C99.0256 127.794 98.5679 127.488 97.4999 128.406Z" stroke="black" stroke-width="0.611888"/>
<path d="M107.57 114.631C107.325 113.774 107.671 111.315 107.875 110.193L107.57 109.58C107.57 109.886 107.478 110.499 107.112 110.499C106.654 110.499 105.891 109.427 105.128 108.968C104.366 108.509 104.366 107.897 104.823 107.437C105.281 106.978 106.349 107.284 106.807 107.284C107.173 107.284 109.705 106.06 110.926 105.448C110.265 105.754 108.76 106.397 108.027 106.519C107.112 106.672 107.112 106.213 107.57 105.448C108.027 104.682 110.163 103.764 110.468 103.152C110.773 102.54 112.299 102.08 113.062 101.468C113.825 100.856 114.74 101.162 115.503 101.162C116.266 101.162 116.571 101.927 117.181 102.54C117.792 103.152 117.334 104.835 117.029 105.448C116.724 106.06 113.977 109.886 113.672 110.193C113.367 110.499 111.689 113.101 110.468 113.101C109.248 113.101 111.231 111.57 111.231 111.111C111.231 110.652 110.163 112.029 109.705 112.335C109.248 112.641 109.553 115.09 108.943 115.703C108.332 116.315 107.875 115.703 107.57 114.631Z" stroke="black" stroke-width="0.611888"/>
<path d="M89.2612 122.59C89.4138 121.825 89.4138 119.835 89.5663 119.223C89.4646 119.529 89.1697 120.08 88.8035 119.835C88.3458 119.529 88.0407 119.529 87.1252 118.917C86.2098 118.305 86.3624 118.152 86.2098 118.152C86.0573 118.152 84.8367 118.611 84.379 118.611C83.9213 118.611 83.1584 118.305 82.7007 117.386C82.243 116.468 86.2098 115.703 86.8201 115.09C87.4304 114.478 90.7869 110.499 91.2446 109.886C91.7023 109.274 95.6691 107.591 95.6691 105.448C95.6691 103.305 96.7371 102.54 97.0422 102.234C97.3474 101.927 98.1102 102.54 98.5679 101.774C99.0256 101.009 100.094 101.468 100.399 101.468C100.704 101.468 102.23 103.152 102.535 103.458C102.84 103.764 102.23 106.366 102.23 107.591C102.23 108.815 100.399 109.274 99.3308 109.58C98.2628 109.886 98.4154 111.264 98.1102 111.57C97.8051 111.876 94.7537 116.774 94.4486 117.08C94.1434 117.386 93.228 118.611 93.0754 119.223C92.9229 119.835 93.0754 120.907 93.0754 121.519C93.0754 122.131 92.6177 122.59 92.3126 123.049C92.0075 123.509 91.092 123.662 90.0241 123.662C88.9561 123.662 89.1086 123.355 89.2612 122.59Z" stroke="black" stroke-width="0.611888"/>
<path d="M105.891 93.6623C105.647 94.2745 102.026 96.7745 100.246 97.9479C99.7885 98.254 98.7815 98.8662 98.4154 98.8662C98.0492 98.8662 97.9577 99.8866 97.9577 100.397L100.399 100.856C100.246 100.55 100.033 99.9376 100.399 99.9376C100.856 99.9376 102.687 101.774 102.84 102.54C102.992 103.305 103.45 103.305 103.45 103.764V106.366C103.45 106.733 104.569 106.519 105.128 106.366C105.383 106.315 105.8 105.968 105.434 104.988C105.067 104.009 106.4 102.029 107.112 101.162L105.891 103.458L107.417 103.305C107.824 102.948 108.699 102.142 108.943 101.774C109.248 101.315 112.147 97.9479 112.604 97.4887C113.062 97.0294 114.588 94.8867 114.893 94.4275C115.198 93.9683 115.503 92.8969 115.503 92.2847C115.503 91.6725 114.435 89.9889 114.13 89.3767C113.825 88.7645 111.994 89.3767 111.384 89.3767C110.773 89.3767 109.705 90.142 109.248 90.4481C108.79 90.7542 106.196 92.897 105.891 93.6623Z" stroke="black" stroke-width="0.611888"/>
<path d="M81.0225 113.101C81.0225 112.243 80.4122 111.927 80.1071 111.876V112.947L78.7339 111.876C78.2762 111.774 77.2998 111.509 77.0557 111.264C76.8116 111.019 77.0557 110.652 77.2082 110.499L78.4288 109.886L77.2082 109.886C76.7505 109.886 75.8351 110.958 75.0723 110.958C74.3094 110.958 74.6146 110.499 74.6146 109.886C74.6146 109.274 75.53 107.437 75.8351 107.284C76.1403 107.131 80.1071 103.764 80.7173 103.458C81.2056 103.213 83.5653 100.703 84.6841 99.4784C84.5824 99.7845 84.4705 100.305 84.8367 99.9376C85.2944 99.4784 86.6675 96.2642 86.6675 95.4989C86.6675 94.7336 88.6509 94.4275 89.2612 94.4275C89.8715 94.4275 91.3972 94.5806 91.8549 94.4275C92.3126 94.2745 94.1434 95.652 94.4486 96.4173C94.7537 97.1826 95.2114 97.7948 95.6691 98.5601C96.1268 99.3254 95.9743 100.397 95.0588 101.468C94.1435 102.54 92.3128 102.54 91.855 102.54H91.8549C91.3972 102.54 90.3292 104.07 89.8715 104.223C89.4138 104.376 86.8201 106.978 86.8201 107.591C86.8201 108.203 84.6841 110.958 84.379 111.264C84.0739 111.57 84.0739 113.407 83.9213 114.172C83.7687 114.937 82.7007 114.631 83.0059 114.784C83.311 114.937 83.1584 115.549 82.3956 116.009C81.6327 116.468 81.3276 116.009 80.8699 115.549C80.4122 115.09 81.0225 114.172 81.0225 113.101Z" stroke="black" stroke-width="0.611888"/>
<path d="M89.2612 91.9786C89.2612 91.3664 91.6006 90.295 92.7703 89.8358L98.5679 84.4788C98.5322 84.837 98.4714 85.4166 98.4384 85.6453C98.7814 85.0673 102.84 81.4047 102.84 81.1115C102.84 80.8054 103.45 79.734 103.908 79.5809C104.366 79.4279 105.891 79.2748 106.349 79.1218C106.807 78.9687 106.807 78.9687 107.112 78.3565L107.112 78.3565C107.417 77.7442 108.637 77.7442 109.705 77.7442C110.773 77.7442 111.841 79.5809 111.994 80.1932C112.147 80.8054 111.689 82.336 111.231 82.6421C110.865 82.887 110.57 82.2339 110.468 81.8768V84.6318C110.468 85.1216 109.248 85.5502 108.637 85.7032C108.485 86.0604 108.149 86.8052 108.027 86.9277L104.823 90.1419C104.366 90.6011 101.924 93.2031 101.619 93.9683C101.314 94.7336 99.7885 95.805 99.3308 95.805C98.9646 95.805 98.8731 94.5806 98.8731 93.9683V95.805C98.8731 96.2642 98.4154 97.9479 98.4154 98.1009C98.4154 98.2539 97.0422 98.1009 96.5845 97.9479C96.1268 97.7949 96.2794 95.0397 95.9743 94.5806C95.7301 94.2132 94.8554 93.6112 94.4486 93.3561C94.7537 93.7132 95.4555 94.55 95.8217 95.0397C96.1879 95.5295 95.6691 95.5499 95.364 95.4989C94.7537 94.9887 93.4721 93.9683 93.228 93.9683C92.9229 93.9683 91.092 93.6623 91.092 93.2031C91.092 92.7439 91.8547 92.7439 92.3124 92.7439H92.3126C92.7703 92.7439 91.2446 92.5908 91.092 92.7439C90.9395 92.8969 90.3292 93.3561 89.8715 93.2031C89.4138 93.05 89.2612 92.7439 89.2612 91.9786Z" stroke="black" stroke-width="0.611888"/>
<path d="M74.1569 108.05C74.0911 107.984 74.0072 107.89 73.928 107.785C73.9737 108.016 73.9706 108.236 73.8517 108.356C73.5466 108.662 72.0209 106.978 71.5632 106.825C71.1055 106.672 72.326 106.366 71.8683 106.06C71.4106 105.754 68.5118 106.366 68.2067 106.366C67.9015 106.366 68.2067 104.223 68.8169 103.764C69.4272 103.305 74.462 96.8764 74.462 96.7234C74.462 96.5703 74.6146 94.4275 74.7671 94.1214C74.9197 93.8153 76.1403 92.1316 76.7505 91.5194C77.3608 90.9072 78.4288 91.3664 79.1916 91.5194C79.8019 91.6419 81.2768 92.999 81.9379 93.6622C81.8362 94.1214 81.5412 95.1316 81.175 95.4989C80.7173 95.9581 79.3442 99.7845 79.3442 100.856C79.3442 101.927 76.598 105.295 76.2928 105.448C75.9877 105.601 75.0723 107.284 75.0723 107.591C75.0723 107.835 74.462 107.999 74.1569 108.05Z" stroke="black" stroke-width="0.611888"/>
<path d="M83.0059 80.6523C83.1279 79.3054 83.8704 78.1524 84.2264 77.7442C85.7521 77.4381 86.8201 79.2748 86.6675 79.5809C86.515 79.887 86.0573 83.1013 85.9047 84.0196C85.7521 84.9379 85.2944 90.1419 85.2944 90.9072C85.2944 91.6725 83.7687 92.4378 83.0059 92.2847C82.7936 92.2421 82.6982 92.0748 82.6748 91.851C82.5739 92.5238 82.1997 93.1813 81.9379 93.05C81.6327 92.8969 80.7173 91.5194 79.6493 90.9072C78.5814 90.295 77.9711 90.6011 77.8185 90.4481C77.6659 90.2951 77.5134 89.0705 77.8185 88.9174C78.1237 88.7644 79.3442 87.5399 80.1071 86.9277C80.8699 86.3155 80.2596 84.9379 80.7173 84.6318C81.175 84.3257 82.8533 82.336 83.0059 80.6523Z" stroke="black" stroke-width="0.611888"/>
<path d="M108.721 25.6745C108.721 31.7983 103.279 36.7898 96.5299 36.7898C89.7813 36.7898 84.3389 31.7983 84.3389 25.6745C84.3389 19.5507 89.7813 14.5592 96.5299 14.5592C103.279 14.5592 108.721 19.5507 108.721 25.6745Z" fill="#727272" stroke="black" stroke-width="0.358559"/>
<path d="M105.853 26.0327C105.853 30.7724 101.692 34.6381 96.5301 34.6381C91.3679 34.6381 87.2076 30.7724 87.2076 26.0327C87.2076 21.2931 91.3679 17.4273 96.5301 17.4273C101.692 17.4273 105.853 21.2931 105.853 26.0327Z" fill="#1B1B1B" stroke="black" stroke-width="0.358559"/>
<path d="M99.47 42.1821C99.47 43.2614 92.0483 45.2402 93.3206 39.6637C94.3207 35.2803 92.9461 26.2544 92.0933 22.0729C91.79 20.4923 103.923 21.315 101.378 22.3943C98.8338 23.4737 99.47 41.1028 99.47 42.1821Z" fill="#D9D9D9"/>
<path d="M92.0483 21.8547C92.0631 21.9259 92.0781 21.9986 92.0933 22.0729M92.0933 22.0729C92.9461 26.2544 94.3207 35.2803 93.3206 39.6637C92.0483 45.2402 99.47 43.2614 99.47 42.1821C99.47 41.1028 98.8338 23.4737 101.378 22.3943C103.923 21.315 91.79 20.4923 92.0933 22.0729Z" stroke="black" stroke-width="0.717117"/>
<rect x="90.0763" y="22.8062" width="12.5496" height="6.45406" rx="3.04775" fill="#D9D9D9" stroke="black" stroke-width="0.358559"/>
<rect x="91.8687" y="30.3355" width="8.96397" height="7.17117" rx="3.04775" fill="#D9D9D9" stroke="black" stroke-width="0.358559"/>
<circle cx="95.4545" cy="66.5502" r="28.1469" fill="#656565"/>
<circle cx="95.8129" cy="66.9086" r="23.8441" fill="#D7D7D7"/>
<circle cx="95.2751" cy="67.0881" r="22.0514" stroke="black" stroke-width="0.358559"/>
<circle cx="95.2754" cy="67.0884" r="20.6171" stroke="black" stroke-width="0.358559"/>
<path d="M87.5659 62.9648C85.7731 61.5306 82.1875 58.6263 82.1875 58.4828L89.0001 62.1581V61.3513C89.0001 61.2079 89.1196 60.694 89.1794 60.4549C89.4782 60.2159 90.1834 59.7019 90.6136 59.5585C91.1515 59.3792 91.8686 59.9171 92.0479 60.0964C92.2271 60.2756 92.2271 60.2756 92.5857 61.172C92.8725 61.8892 92.3467 62.666 92.0479 62.9648L92.2271 64.5783L93.3028 64.3991L93.4821 64.9369L93.1235 65.8333L92.2271 66.1919L92.0479 65.1162L90.4343 65.654C89.6575 66.1919 87.781 67.0165 86.4902 66.0126C85.1994 65.0086 86.6695 63.5624 87.5659 62.9648Z" fill="black"/>
<path d="M106.569 53.8216C104.848 56.1164 100.354 60.2756 98.3226 62.0684C98.0836 62.2477 97.498 62.6063 97.0677 62.6063C96.5298 62.6063 96.3506 63.5027 96.3506 64.0405C96.3506 64.5783 96.7091 65.8333 96.3506 65.654C95.992 65.4747 95.6334 65.654 94.5578 65.654C93.4821 65.654 93.4821 67.9846 93.8407 68.7018C94.1992 69.4189 95.0956 69.0603 96.3506 69.0603C97.6055 69.0603 97.7848 68.1639 97.7848 67.8054C97.7848 67.5185 97.6653 66.7297 97.6055 66.3711C97.1872 66.0126 96.7091 65.4389 98.1434 66.0126C99.5776 66.5863 100.414 64.3393 100.653 63.1441C103.342 59.0804 108.291 51.5268 106.569 53.8216Z" fill="black"/>
<path d="M87.5659 62.9648C85.7731 61.5306 82.1875 58.6263 82.1875 58.4828L89.0001 62.1581V61.3513C89.0001 61.2079 89.1196 60.694 89.1794 60.4549C89.4782 60.2159 90.1834 59.7019 90.6136 59.5585C91.1515 59.3792 91.8686 59.9171 92.0479 60.0964C92.2271 60.2756 92.2271 60.2756 92.5857 61.172C92.8725 61.8892 92.3467 62.666 92.0479 62.9648L92.2271 64.5783L93.3028 64.3991L93.4821 64.9369L93.1235 65.8333L92.2271 66.1919L92.0479 65.1162L90.4343 65.654C89.6575 66.1919 87.781 67.0165 86.4902 66.0126C85.1994 65.0086 86.6695 63.5624 87.5659 62.9648Z" stroke="black" stroke-width="0.717117"/>
<path d="M106.569 53.8216C104.848 56.1164 100.354 60.2756 98.3226 62.0684C98.0836 62.2477 97.498 62.6063 97.0677 62.6063C96.5298 62.6063 96.3506 63.5027 96.3506 64.0405C96.3506 64.5783 96.7091 65.8333 96.3506 65.654C95.992 65.4747 95.6334 65.654 94.5578 65.654C93.4821 65.654 93.4821 67.9846 93.8407 68.7018C94.1992 69.4189 95.0956 69.0603 96.3506 69.0603C97.6055 69.0603 97.7848 68.1639 97.7848 67.8054C97.7848 67.5185 97.6653 66.7297 97.6055 66.3711C97.1872 66.0126 96.7091 65.4389 98.1434 66.0126C99.5776 66.5863 100.414 64.3393 100.653 63.1441C103.342 59.0804 108.291 51.5268 106.569 53.8216Z" stroke="black" stroke-width="0.717117"/>
<circle cx="90.6138" cy="61.7095" r="1.07568" fill="#ADADAD"/>
<circle cx="88.4624" cy="64.5776" r="1.07568" fill="#ADADAD"/>
<circle cx="95.6338" cy="67.4468" r="1.07568" fill="#ADADAD"/>
<circle cx="98.1435" cy="64.2192" r="1.07568" fill="#ADADAD"/>
<path d="M89.2612 91.9785C89.2612 91.3663 91.6006 90.2949 92.7703 89.8357L98.568 84.4787C98.5322 84.8369 98.4715 85.4165 98.4384 85.6452C98.7814 85.0672 102.84 81.4046 102.84 81.1114C102.84 80.8053 103.45 79.7339 103.908 79.5808C104.366 79.4278 105.891 79.2747 106.349 79.1217C106.807 78.9686 106.807 78.9686 107.112 78.3564C107.417 77.7441 108.638 77.7441 109.705 77.7441C110.773 77.7441 111.841 79.5808 111.994 80.1931C112.147 80.8053 111.689 82.3359 111.231 82.642C110.865 82.8869 110.57 82.2338 110.468 81.8767V84.6317C110.468 85.1215 109.248 85.5501 108.638 85.7031C108.485 86.0603 108.149 86.8051 108.027 86.9276L104.823 90.1418C104.366 90.601 101.924 93.203 101.619 93.9682C101.314 94.7335 99.7885 95.8049 99.3308 95.8049C98.9646 95.8049 98.8731 94.5805 98.8731 93.9682V95.8049C98.8731 96.2641 98.4154 97.9478 98.4154 98.1008C98.4154 98.2538 97.0423 98.1008 96.5846 97.9478C96.1268 97.7948 96.2794 95.0396 95.9743 94.5805C95.7302 94.2131 94.8554 93.6111 94.4486 93.356C94.7537 93.7131 95.4555 94.5499 95.8217 95.0396C96.1879 95.5294 95.6691 95.5498 95.364 95.4988C94.7537 94.9886 93.4721 93.9682 93.228 93.9682C92.9229 93.9682 91.0921 93.6622 91.0921 93.203C91.0921 92.7438 91.8547 92.7438 92.3124 92.7438H92.3126C92.7703 92.7438 91.2446 92.5907 91.0921 92.7438C90.9395 92.8968 90.3292 93.356 89.8715 93.203C89.4138 93.0499 89.2612 92.7438 89.2612 91.9785Z" fill="#D9D9D9" stroke="black" stroke-width="0.611888"/>
</svg>
