<svg width="175" height="175" viewBox="0 0 175 175" fill="none" xmlns="http://www.w3.org/2000/svg">
<circle cx="87.5" cy="87.5" r="86.8881" fill="#333333" stroke="black" stroke-width="1.22378"/>
<circle cx="87.6527" cy="87.3466" r="80.9222" fill="#252525" stroke="black" stroke-width="1.22378"/>
<path d="M36.8325 104.68C33.3033 104.261 26.6038 103.89 28.0394 105.757C29.475 107.623 34.4996 105.816 36.8325 104.68Z" fill="#921818"/>
<path d="M51.9062 144.877C50.1715 147.03 47.0611 151.48 48.4967 152.055C50.2912 152.772 51.3679 149.004 51.9062 144.877Z" fill="#921818"/>
<path d="M64.1088 132.495C63.5107 134.289 62.4938 138.058 63.2116 138.775C64.1088 139.673 66.0828 136.622 64.1088 132.495Z" fill="#921818"/>
<path d="M75.2347 138.775C74.9356 142.065 74.7682 148.358 76.4909 147.21C78.6443 145.774 75.2347 139.852 75.2347 138.775Z" fill="#921818"/>
<path d="M36.8325 104.68C33.3033 104.261 26.6038 103.89 28.0394 105.757C29.475 107.623 34.4996 105.816 36.8325 104.68Z" stroke="black" stroke-width="0.7178"/>
<path d="M51.9062 144.877C50.1715 147.03 47.0611 151.48 48.4967 152.055C50.2912 152.772 51.3679 149.004 51.9062 144.877Z" stroke="black" stroke-width="0.7178"/>
<path d="M64.1088 132.495C63.5107 134.289 62.4938 138.058 63.2116 138.775C64.1088 139.673 66.0828 136.622 64.1088 132.495Z" stroke="black" stroke-width="0.7178"/>
<path d="M75.2347 138.775C74.9356 142.065 74.7682 148.358 76.4909 147.21C78.6443 145.774 75.2347 139.852 75.2347 138.775Z" stroke="black" stroke-width="0.7178"/>
<path d="M40.9595 124.24L121.174 65.9189L125.839 70.5846C125.301 71.3623 124.224 73.4917 124.224 75.7887C124.224 78.0857 125.48 80.8731 126.378 81.5311C125.241 82.4283 121.712 85.1919 116.687 89.068C110.407 93.9131 74.5166 115.447 64.4674 120.113C56.4281 123.845 45.3261 124.599 40.9595 124.24Z" fill="#D9D9D9" stroke="black" stroke-width="1.32089"/>
<path d="M51.0088 110.064C46.1278 107.336 45.5057 98.6388 45.8048 94.6311C47.3002 94.3918 50.973 94.0569 53.7006 94.6311C57.1102 95.3489 63.9293 90.6832 66.8005 89.427C69.6717 88.1709 70.5689 83.3258 71.6456 83.3258C72.7223 83.3258 75.2346 86.3764 77.7469 87.4531C80.2592 88.5298 85.1044 87.0942 87.2578 86.3764C88.9805 85.8022 89.5308 82.907 89.5906 81.5312C91.3253 82.1294 95.4766 83.3258 98.2042 83.3258C101.614 83.3258 104.485 81.5313 105.382 82.4285C106.279 83.3258 106.818 87.2737 108.612 91.7599C110.407 96.2462 109.151 107.91 108.612 110.064C108.074 112.217 106.279 124.061 103.588 130.162C100.896 136.264 91.9235 133.213 89.5906 132.675C87.2578 132.136 80.0798 126.214 75.2346 124.061C70.3895 121.908 57.1101 113.473 51.0088 110.064Z" fill="#A21E1E" stroke="black" stroke-width="1.32089"/>
<path d="M106.459 81.8894C103.588 84.4735 95.5723 82.9661 91.9235 81.8894H90.3085C88.8131 80.3342 85.571 76.8648 84.5661 75.4292C83.3099 73.6347 84.925 70.0457 85.8222 68.4307C86.7195 66.8156 91.9235 67.5334 94.6153 67.1745C97.307 66.8156 101.075 69.3279 102.691 70.0457C104.306 70.7635 110.048 78.6593 106.459 81.8894Z" fill="#A21E1E" stroke="black" stroke-width="1.32089"/>
<path d="M78.6264 88.0022C82.646 89.8685 87.1203 87.2246 88.855 85.6694C89.3335 84.0543 90.3265 80.3218 90.4701 78.3119C90.6495 75.7996 92.8029 69.3394 93.3412 67.186C93.8796 65.0326 98.1864 62.1614 99.8014 60.7258C101.417 59.2903 102.673 60.9053 105.364 60.7258C108.056 60.5464 108.254 58.7412 108.254 56.5878C108.254 54.4344 104.862 51.9116 102.888 52.0911C100.914 52.2705 88.5142 59.4592 85.8224 61.0742C83.1306 62.6893 75.5757 70.4161 73.9607 71.1339C72.3456 71.8517 70.7306 75.6202 69.4744 77.4147C68.2183 79.2092 69.4744 82.4393 70.7306 82.6187C71.9867 82.7982 73.6018 85.6694 78.6264 88.0022Z" fill="#A21E1E" stroke="black" stroke-width="1.32089"/>
<path d="M45.8047 83.505C44.3691 87.6683 44.4888 92.1784 44.728 93.9131C46.5225 94.8104 56.3923 94.8104 58.5457 93.9131C60.6991 93.0159 67.3388 87.8118 69.3127 86.3762C71.2867 84.9406 71.1072 78.1215 71.4661 75.0709C71.825 72.0202 73.4401 68.6107 73.9784 65.56C74.5168 62.5094 81.5153 54.6136 84.2071 53.178C86.8988 51.7424 89.2317 49.7684 89.9495 48.3328C90.6673 46.8972 88.3344 45.1027 86.3605 43.1288C84.3865 41.1548 80.7975 44.3849 77.9263 45.8205C75.0551 47.2561 73.4401 46.7178 70.9278 45.4616C68.9179 44.4567 67.9967 41.3941 67.8771 40.0781L65.0059 41.8726C65.3648 42.8297 66.5133 45.2822 67.5182 46.7178C68.5231 48.1534 66.92 50.4862 65.7237 51.9218L63.032 54.4341L58.1868 46.5383L56.9307 47.4356L55.6745 48.3328L60.8786 57.1259C59.2037 58.7409 55.9975 61.5403 53.7006 62.6888C50.8294 64.1244 48.1376 61.2532 48.1376 61.2532C48.1376 61.2532 41.9167 57.6044 39.1651 55.6903L37.0117 59.9971C39.5838 61.4925 45.2664 64.6987 47.4198 65.56C50.1116 66.6367 50.8294 67.3545 50.1116 68.6107C49.3938 69.8668 47.5992 78.301 45.8047 83.505Z" fill="#A21E1E" stroke="black" stroke-width="1.32089"/>
<path d="M131.582 77.7629C129.716 75.4659 121.592 66.9959 117.764 63.048C118.721 63.048 121.712 62.2584 126.019 59.1001C131.402 55.1522 138.58 49.5893 142.169 46.7181C145.758 43.8469 144.682 46.3592 148.809 46.7181C152.111 47.0052 157.243 52.4605 159.397 55.1522C158.739 55.5709 156.884 56.4801 154.731 56.7673C152.039 57.1262 138.76 65.7398 134.453 68.9699C130.146 72.2 133.915 80.6341 131.582 77.7629Z" fill="#A5A5A5" stroke="black" stroke-width="1.32089"/>
<path d="M88.873 122.804C88.3346 121.548 89.5908 112.755 91.2058 108.986M91.2058 108.986C92.8209 105.218 91.7441 115.985 97.666 117.78M91.2058 108.986C91.5376 105.699 91.8906 100.516 91.8647 95.7072M90.3085 84.7607C90.9899 85.8679 91.4038 87.8762 91.6319 90.3237M91.6319 90.3237C93.2844 92.2378 97.4865 95.9943 101.076 95.7072M91.6319 90.3237C91.7851 91.9668 91.8544 93.8079 91.8647 95.7072M77.747 110.96C77.8068 109.106 78.5725 105.039 81.1566 103.603M81.1566 103.603C84.3867 101.808 76.8498 105.397 72.543 105.756M81.1566 103.603C84.168 102.132 90.5255 98.4926 91.8647 95.7072" stroke="black" stroke-width="1.32089"/>
<path d="M140.195 48.5117C140.016 49.1697 140.088 50.6292 141.811 51.2035C143.964 51.9213 152.039 52.8185 154.731 55.6897" stroke="black" stroke-width="1.32089"/>
</svg>
