<svg width="632" height="635" viewBox="0 0 632 635" fill="none" xmlns="http://www.w3.org/2000/svg">
<path d="M629.79 317.5C629.79 491.64 489.292 632.79 316 632.79C142.708 632.79 2.20979 491.64 2.20979 317.5C2.20979 143.36 142.708 2.20979 316 2.20979C489.292 2.20979 629.79 143.36 629.79 317.5Z" fill="#333333" stroke="black" stroke-width="4.41958"/>
<path d="M608.799 316.945C608.799 479.129 477.947 610.587 316.554 610.587C155.162 610.587 24.3094 479.129 24.3094 316.945C24.3094 154.761 155.162 23.3023 316.554 23.3023C477.947 23.3023 608.799 154.761 608.799 316.945Z" fill="#252525" stroke="black" stroke-width="4.41958"/>
<path d="M454.162 378.194C454.162 473.37 376.344 550.546 280.324 550.546C184.304 550.546 106.486 473.37 106.486 378.194C106.486 283.018 184.304 205.842 280.324 205.842C376.344 205.842 454.162 283.018 454.162 378.194Z" fill="#3E3E3E" stroke="black" stroke-width="2.97159"/>
<path d="M320.44 179.097L329.355 153.839C329.355 153.839 338.984 135.588 348.671 127.095C372.056 106.591 401.51 98.0015 427.418 115.208C455.389 133.786 442.276 199.899 442.276 199.899C442.276 199.899 437.812 217.2 442.276 226.643C451.464 246.081 480.411 231.1 497.25 229.615L494.279 253.387H477.935C477.935 253.387 460.357 256.23 449.705 253.387C438.648 250.437 430.994 247.915 424.446 238.529C418.648 230.218 419.1 223.387 418.503 213.271C417.706 199.749 424.446 179.097 424.446 179.097C424.446 179.097 430.548 159.253 424.446 149.382C418.577 139.888 411.727 133.098 400.673 131.552C391.978 130.335 375.415 136.009 375.415 136.009C375.415 136.009 360.977 147.66 354.614 156.811C347.379 167.215 346.194 182.564 345.699 188.012L320.44 179.097Z" fill="#D9D9D9" stroke="black" stroke-width="2.97159"/>
<path d="M255.065 206.175L255.065 170.244C278.437 171.186 302.047 172.738 324.608 177.22C354.121 183.083 381.761 193.947 404.643 214.952L386.689 239.812L255.065 206.175Z" fill="#3E3E3E" stroke="black" stroke-width="2.97159"/>
<path d="M492.792 210.299L468.909 141.952L516.565 185.04L540.338 143.438L540.937 199.521L596.798 185.04L567.082 229.614L628 253.387H553.71L577.483 317.276L533.219 275.408L497.25 320.248L498.736 265.273L464.562 278.645L494.278 237.043L455.647 210.299H492.792Z" fill="#363636" stroke="black" stroke-width="2.97159"/>
<path d="M504.68 219.214L491.307 177.611L519.538 207.327L532.91 185.04V210.299L565.597 207.327L543.31 229.614L584.913 241.501L537.367 244.472L552.225 277.16L528.452 253.387L510.623 277.16V247.444L491.307 256.359L507.651 232.586L485.364 219.214H504.68Z" fill="#D9D9D9" stroke="black" stroke-width="2.97159"/>
</svg>
