<svg width="632" height="635" viewBox="0 0 632 635" fill="none" xmlns="http://www.w3.org/2000/svg">
<path d="M629.79 317.5C629.79 491.64 489.292 632.79 316 632.79C142.708 632.79 2.20979 491.64 2.20979 317.5C2.20979 143.36 142.708 2.20979 316 2.20979C489.292 2.20979 629.79 143.36 629.79 317.5Z" fill="#333333" stroke="black" stroke-width="4.41958"/>
<path d="M608.799 316.945C608.799 479.129 477.947 610.587 316.554 610.587C155.162 610.587 24.3094 479.129 24.3094 316.945C24.3094 154.761 155.162 23.3023 316.554 23.3023C477.947 23.3023 608.799 154.761 608.799 316.945Z" fill="#252525" stroke="black" stroke-width="4.41958"/>
<path d="M242.326 484.381C234.101 391.157 218.527 203.062 222.036 196.482C226.402 188.296 258.462 106.802 323.62 88.7133H324.877L324.101 74.4675L323.823 63.2257L323.62 55L342.68 55L342.131 64.7337L341.583 74.4675L340.78 88.7133H344.325C367.905 99.5935 420.769 136.379 443.581 196.482C438.098 292.448 426.911 484.381 426.033 484.381L242.326 484.381Z" fill="#D9D9D9"/>
<path d="M324.583 88.4511C324.261 88.537 323.94 88.6244 323.62 88.7133M323.62 88.7133C258.462 106.802 226.402 188.296 222.036 196.482C218.527 203.062 234.101 391.157 242.326 484.381C303.196 484.381 425.156 484.381 426.033 484.381C426.911 484.381 438.098 292.448 443.581 196.482C420.769 136.379 367.905 99.5935 344.325 88.7133L323.62 88.7133ZM323.62 55L342.68 55L342.131 64.7337L341.583 74.4675L340.78 88.7133L324.877 88.7133L324.101 74.4675L323.823 63.2257L323.62 55Z" stroke="black" stroke-width="2.19352"/>
<path d="M333.358 99.9672L323.62 115.322H344.325L333.358 99.9672Z" fill="#101010"/>
<path d="M355.293 115.322L347.067 104.903L369.551 115.322L355.293 115.322Z" fill="#101010"/>
<path d="M311.971 115.322L317.455 104.903L297.713 114.225L311.971 115.322Z" fill="#101010"/>
<path d="M305.939 123.547L286.746 123.547C282.358 123.547 265.176 143.289 257.133 153.16C269.015 152.977 292.668 152.392 292.229 151.515C291.791 150.637 301.186 132.504 305.939 123.547Z" fill="#101010"/>
<path d="M302.1 151.515L317.455 123.547H349.261L360.228 148.225L302.1 151.515Z" fill="#101010"/>
<path d="M370.648 147.128C371.525 146.25 364.067 132.504 360.228 125.741H382.712C384.467 125.741 396.239 138.902 401.905 145.483C391.12 146.397 369.77 148.005 370.648 147.128Z" fill="#101010"/>
<path d="M288.391 159.741L250.552 161.934L235.198 193.192H276.875L288.391 159.741Z" fill="#101010"/>
<path d="M364.067 156.45L299.907 159.741L286.746 193.192L379.97 193.192C380.847 193.192 369.734 168.697 364.067 156.45Z" fill="#101010"/>
<path d="M388.744 193.192C389.183 191.876 379.422 167.052 374.486 154.805C385.088 154.257 406.621 153.16 407.937 153.16C409.253 153.16 424.206 179.848 431.518 193.192C417.077 193.74 388.305 194.508 388.744 193.192Z" fill="#101010"/>
<path d="M276.875 202.514H233.553V257.9L279.068 260.642L276.875 202.514Z" fill="#101010"/>
<path d="M379.97 202.514L286.746 202.514V260.642L378.325 267.223L379.97 202.514Z" fill="#101010"/>
<path d="M386.551 267.223L388.744 202.514H433.163L431.518 269.965L386.551 267.223Z" fill="#101010"/>
<path d="M239.037 340.157L233.553 267.223L279.068 268.868L282.358 341.802L239.037 340.157Z" fill="#101010"/>
<path d="M378.325 275.449L286.746 269.965L291.681 341.802L373.938 343.448L378.325 275.449Z" fill="#101010"/>
<path d="M383.26 343.448L386.551 275.449L431.518 278.739L427.679 345.641L383.26 343.448Z" fill="#101010"/>
<path d="M284.004 348.931H239.037L242.327 415.834L287.842 414.189L284.004 348.931Z" fill="#101010"/>
<path d="M373.938 351.673L291.681 348.931L296.068 414.189H369.551L373.938 351.673Z" fill="#101010"/>
<path d="M381.615 351.673L378.325 414.189L423.292 414.189L427.679 353.867L381.615 351.673Z" fill="#101010"/>
<path d="M289.487 423.511H242.327L245.617 464.091H291.681L289.487 423.511Z" fill="#101010"/>
<path d="M369.551 422.414H296.068L299.907 464.091L365.712 466.833L369.551 422.414Z" fill="#101010"/>
<path d="M373.938 466.833L376.131 422.414L423.292 420.769L418.357 466.833L373.938 466.833Z" fill="#101010"/>
<path d="M333.358 99.9672L323.62 115.322H344.325L333.358 99.9672Z" stroke="black" stroke-width="2.19352"/>
<path d="M355.293 115.322L347.067 104.903L369.551 115.322L355.293 115.322Z" stroke="black" stroke-width="2.19352"/>
<path d="M311.971 115.322L317.455 104.903L297.713 114.225L311.971 115.322Z" stroke="black" stroke-width="2.19352"/>
<path d="M305.939 123.547L286.746 123.547C282.358 123.547 265.176 143.289 257.133 153.16C269.015 152.977 292.668 152.392 292.229 151.515C291.791 150.637 301.186 132.504 305.939 123.547Z" stroke="black" stroke-width="2.19352"/>
<path d="M302.1 151.515L317.455 123.547H349.261L360.228 148.225L302.1 151.515Z" stroke="black" stroke-width="2.19352"/>
<path d="M370.648 147.128C371.525 146.25 364.067 132.504 360.228 125.741H382.712C384.467 125.741 396.239 138.902 401.905 145.483C391.12 146.397 369.77 148.005 370.648 147.128Z" stroke="black" stroke-width="2.19352"/>
<path d="M288.391 159.741L250.552 161.934L235.198 193.192H276.875L288.391 159.741Z" stroke="black" stroke-width="2.19352"/>
<path d="M364.067 156.45L299.907 159.741L286.746 193.192L379.97 193.192C380.847 193.192 369.734 168.697 364.067 156.45Z" stroke="black" stroke-width="2.19352"/>
<path d="M388.744 193.192C389.183 191.876 379.422 167.052 374.486 154.805C385.088 154.257 406.621 153.16 407.937 153.16C409.253 153.16 424.206 179.848 431.518 193.192C417.077 193.74 388.305 194.508 388.744 193.192Z" stroke="black" stroke-width="2.19352"/>
<path d="M276.875 202.514H233.553V257.9L279.068 260.642L276.875 202.514Z" stroke="black" stroke-width="2.19352"/>
<path d="M379.97 202.514L286.746 202.514V260.642L378.325 267.223L379.97 202.514Z" stroke="black" stroke-width="2.19352"/>
<path d="M386.551 267.223L388.744 202.514H433.163L431.518 269.965L386.551 267.223Z" stroke="black" stroke-width="2.19352"/>
<path d="M239.037 340.157L233.553 267.223L279.068 268.868L282.358 341.802L239.037 340.157Z" stroke="black" stroke-width="2.19352"/>
<path d="M378.325 275.449L286.746 269.965L291.681 341.802L373.938 343.448L378.325 275.449Z" stroke="black" stroke-width="2.19352"/>
<path d="M383.26 343.448L386.551 275.449L431.518 278.739L427.679 345.641L383.26 343.448Z" stroke="black" stroke-width="2.19352"/>
<path d="M284.004 348.931H239.037L242.327 415.834L287.842 414.189L284.004 348.931Z" stroke="black" stroke-width="2.19352"/>
<path d="M373.938 351.673L291.681 348.931L296.068 414.189H369.551L373.938 351.673Z" stroke="black" stroke-width="2.19352"/>
<path d="M381.615 351.673L378.325 414.189L423.292 414.189L427.679 353.867L381.615 351.673Z" stroke="black" stroke-width="2.19352"/>
<path d="M289.487 423.511H242.327L245.617 464.091H291.681L289.487 423.511Z" stroke="black" stroke-width="2.19352"/>
<path d="M369.551 422.414H296.068L299.907 464.091L365.712 466.833L369.551 422.414Z" stroke="black" stroke-width="2.19352"/>
<path d="M373.938 466.833L376.131 422.414L423.292 420.769L418.357 466.833L373.938 466.833Z" stroke="black" stroke-width="2.19352"/>
<ellipse cx="317.017" cy="501.856" rx="175.983" ry="20.7867" fill="#CBCBCB"/>
<path d="M175.135 475.759C178.267 471.207 181.622 466.331 182.886 458.431C183.262 460.191 183.058 462.079 182.5 464.115C181.871 466.411 180.809 468.84 179.675 471.434C179.443 471.965 179.208 472.503 178.973 473.048C176.311 479.222 173.694 486.236 176.208 493.894L168.518 492.903C168.624 485.317 171.666 480.802 175.014 475.936C175.054 475.877 175.094 475.818 175.135 475.759Z" fill="#B9B9B9" stroke="black" stroke-width="0.939514"/>
<path d="M165.703 483.784C162.588 481.046 159.183 478.052 157.904 473.179C157.779 473.514 157.719 473.853 157.712 474.197C157.697 474.892 157.895 475.64 158.263 476.453C158.881 477.817 159.924 479.261 161.058 480.831C161.291 481.154 161.528 481.482 161.766 481.815C163.139 483.742 164.523 485.835 165.188 488.06C165.79 490.073 165.802 492.195 164.718 494.391L172.264 493.802C172.083 489.471 169.179 486.841 165.851 483.914C165.802 483.871 165.753 483.828 165.703 483.784Z" fill="#B9B9B9" stroke="black" stroke-width="0.939514"/>
<path d="M179.783 483.784C182.898 481.046 186.304 478.052 187.582 473.179C187.707 473.514 187.767 473.853 187.775 474.197C187.79 474.892 187.591 475.64 187.223 476.453C186.606 477.817 185.562 479.261 184.428 480.831C184.195 481.154 183.958 481.482 183.72 481.815C182.347 483.742 180.963 485.835 180.298 488.06C179.697 490.073 179.684 492.195 180.768 494.391L173.222 493.802C173.404 489.471 176.307 486.841 179.635 483.914C179.684 483.871 179.734 483.828 179.783 483.784Z" fill="#B9B9B9" stroke="black" stroke-width="0.939514"/>
<path d="M182.238 489.705C194.415 485.646 212.586 468.162 187.858 430.696C201.544 441.644 220.562 468.945 190.374 492.515C195.467 491.89 209.776 484.647 226.261 460.669C242.746 436.69 218.143 406.967 203.781 395.103C217.831 401.972 244.806 422.641 240.311 450.365C235.815 478.09 203.469 491.266 187.858 494.388C162.569 504.691 136.277 477.528 129.786 470.972C124.593 465.726 131.95 440.334 136.277 428.294C132.966 449.341 137.57 490.449 182.238 489.705Z" fill="#D9D9D9"/>
<path d="M136.342 427.886C136.32 428.021 136.298 428.157 136.277 428.294M187.858 494.388C162.569 504.691 136.277 477.528 129.786 470.972C124.593 465.726 131.95 440.334 136.277 428.294M187.858 494.388C188.732 493.766 189.57 493.142 190.374 492.515M187.858 494.388C203.469 491.266 235.815 478.09 240.311 450.365C244.806 422.641 217.831 401.972 203.781 395.103C218.143 406.967 242.746 436.69 226.261 460.669C209.776 484.647 195.467 491.89 190.374 492.515M136.277 428.294C132.966 449.341 137.57 490.449 182.238 489.705C194.415 485.646 212.586 468.162 187.858 430.696C201.544 441.644 220.562 468.945 190.374 492.515" stroke="black" stroke-width="3.7466"/>
<path d="M375.188 475.655C378.185 468.161 388.301 475.03 392.984 479.401C401.227 482.398 439.504 475.655 457.613 471.908C458.55 468.786 461.172 461.23 464.17 455.985C467.916 449.428 477.283 456.922 481.029 462.542C484.776 468.161 469.789 475.655 475.409 477.528C481.029 479.401 482.903 489.704 477.283 495.324C472.787 499.82 466.667 491.578 464.17 486.894C440.441 488.768 392.422 493.638 390.174 498.134C387.364 503.754 382.681 501.881 378.934 498.134C375.937 495.137 380.183 491.265 382.681 489.704C381.12 489.392 377.436 488.393 375.188 486.894C372.378 485.021 371.441 485.021 375.188 475.655Z" fill="#D9D9D9" stroke="black" stroke-width="3.7466"/>
<path d="M290.889 396.976C275.903 396.976 262.789 411.963 258.106 419.456C255.858 419.456 259.043 461.917 260.916 483.148C269.034 482.211 285.831 481.649 288.079 486.895C290.327 492.14 289.016 498.447 288.079 500.944H299.319L313.368 492.514C317.115 490.266 326.794 503.442 331.165 510.311H341.468L333.975 492.514L341.468 503.754H349.898V486.895L352.708 498.134H359.264V492.514L365.821 489.704C363.948 483.772 361.325 471.908 365.821 471.908C371.441 471.908 372.377 464.415 376.124 459.732C379.871 455.048 369.567 450.365 365.821 447.555C362.074 444.745 370.504 432.569 365.821 419.456C361.138 406.343 349.898 409.153 333.975 401.659C318.052 394.166 309.622 396.976 290.889 396.976Z" fill="#D9D9D9" stroke="black" stroke-width="3.7466"/>
<path d="M329.292 471.909C327.044 469.661 328.979 462.23 330.228 458.796C333.038 460.669 343.341 465.352 342.405 468.162C341.468 470.972 335.848 468.162 336.785 470.972C337.721 473.782 332.102 474.719 329.292 471.909Z" fill="#606060" stroke="black" stroke-width="3.7466"/>
<path d="M282.46 484.085C283.085 484.397 285.083 483.897 288.08 479.401C291.076 474.907 269.364 442.585 258.121 426.967C259.047 447.202 258.769 484.583 261.854 482.211C264.883 479.882 277.777 483.148 282.46 484.085Z" fill="#ADADAD"/>
<path d="M258.107 426.949C258.112 426.955 258.116 426.961 258.121 426.967M258.121 426.967C269.364 442.585 291.076 474.907 288.08 479.401C285.083 483.897 283.085 484.397 282.46 484.085C277.777 483.148 264.883 479.882 261.854 482.211C258.769 484.583 259.047 447.202 258.121 426.967Z" stroke="black" stroke-width="3.7466"/>
<path d="M292.044 456.315C291.401 455.289 291.375 453.995 291.971 452.961C295.146 447.454 298.554 444.026 305.56 439.609C306.619 438.942 307.913 438.908 308.916 439.491C313.466 442.134 316.157 444.993 319.076 449.166C320.264 450.864 319.677 453.424 317.578 454.692C312.789 457.584 309.607 460.547 307.073 464.702C305.646 467.04 303 467.666 301.371 466.481C297.61 463.748 294.936 460.924 292.044 456.315Z" fill="#606060" stroke="black" stroke-width="3.7466"/>
<path d="M335.251 427.765C335.394 427.183 335.836 426.724 336.402 426.561C343.255 424.581 348.288 424.539 357.366 426.692C357.972 426.835 358.431 427.277 358.589 427.821C360.405 434.038 360.092 438.431 358.812 444.786C358.606 445.805 357.493 446.523 356.308 446.185C348.952 444.085 343.721 443.927 337.483 445.907C336.155 446.328 334.998 445.561 334.804 444.589C333.634 438.726 333.632 434.349 335.251 427.765Z" fill="#606060" stroke="black" stroke-width="3.7466"/>
<rect x="206.592" y="479.401" width="29.6322" height="22.4796" rx="1.8733" fill="#D9D9D9" stroke="black" stroke-width="3.7466"/>
<rect x="212.212" y="481.275" width="22.4796" height="18.733" rx="1.8733" fill="#BDBDBD" stroke="black" stroke-width="3.7466"/>
<rect x="234.691" y="477.529" width="33.7194" height="24.3529" rx="1.8733" fill="#D9D9D9" stroke="black" stroke-width="3.7466"/>
<rect x="240.31" y="479.402" width="26.2262" height="20.6063" rx="1.8733" fill="#BDBDBD" stroke="black" stroke-width="3.7466"/>
<rect x="182.239" y="485.022" width="22.4796" height="16.8597" rx="1.8733" fill="#D9D9D9" stroke="black" stroke-width="3.7466"/>
<rect x="185.986" y="486.895" width="16.8597" height="13.1131" rx="1.8733" fill="#BDBDBD" stroke="black" stroke-width="3.7466"/>
<path d="M446.774 484.45C449.906 479.898 453.261 475.022 454.525 467.121C454.901 468.882 454.696 470.769 454.139 472.805C453.509 475.102 452.448 477.53 451.314 480.124C451.082 480.655 450.847 481.193 450.612 481.738C447.949 487.912 445.333 494.926 447.846 502.584L440.156 501.593C440.263 494.007 443.305 489.492 446.652 484.626C446.693 484.567 446.733 484.508 446.774 484.45Z" fill="#CACACA" stroke="black" stroke-width="0.939514"/>
<path d="M437.342 492.475C434.227 489.736 430.821 486.742 429.543 481.869C429.418 482.204 429.358 482.543 429.35 482.888C429.335 483.583 429.534 484.33 429.902 485.143C430.519 486.507 431.563 487.952 432.697 489.521C432.93 489.844 433.167 490.172 433.405 490.506C434.778 492.432 436.162 494.526 436.827 496.75C437.428 498.763 437.441 500.886 436.357 503.081L443.903 502.493C443.721 498.161 440.818 495.531 437.49 492.605C437.441 492.561 437.391 492.518 437.342 492.475Z" fill="#CACACA" stroke="black" stroke-width="0.939514"/>
<path d="M451.422 492.475C454.537 489.736 457.942 486.742 459.221 481.869C459.346 482.204 459.406 482.543 459.413 482.888C459.428 483.583 459.23 484.33 458.862 485.143C458.244 486.507 457.201 487.952 456.067 489.521C455.834 489.844 455.597 490.172 455.359 490.506C453.986 492.432 452.602 494.526 451.937 496.75C451.335 498.763 451.323 500.886 452.407 503.081L444.861 502.493C445.042 498.161 447.946 495.531 451.274 492.605C451.323 492.561 451.372 492.518 451.422 492.475Z" fill="#CACACA" stroke="black" stroke-width="0.939514"/>
<path d="M248.419 496.899C251.551 492.347 254.906 487.471 256.17 479.571C256.546 481.331 256.342 483.219 255.784 485.255C255.155 487.551 254.093 489.98 252.959 492.574C252.727 493.105 252.492 493.643 252.257 494.188C249.595 500.362 246.978 507.376 249.492 515.034L241.802 514.043C241.908 506.457 244.95 501.942 248.298 497.076C248.338 497.017 248.379 496.958 248.419 496.899Z" fill="#C0C0C0" stroke="black" stroke-width="0.939514"/>
<path d="M238.988 504.924C235.873 502.186 232.467 499.192 231.188 494.319C231.064 494.654 231.003 494.993 230.996 495.338C230.981 496.032 231.179 496.78 231.547 497.593C232.165 498.957 233.208 500.401 234.342 501.971C234.575 502.294 234.812 502.622 235.05 502.955C236.423 504.882 237.808 506.975 238.472 509.2C239.074 511.213 239.087 513.335 238.003 515.531L245.549 514.942C245.367 510.611 242.464 507.981 239.136 505.054C239.086 505.011 239.037 504.968 238.988 504.924Z" fill="#C0C0C0" stroke="black" stroke-width="0.939514"/>
<path d="M253.067 504.924C256.182 502.186 259.588 499.192 260.866 494.319C260.991 494.654 261.051 494.993 261.059 495.338C261.074 496.032 260.876 496.78 260.507 497.593C259.89 498.957 258.846 500.401 257.712 501.971C257.479 502.294 257.242 502.622 257.005 502.955C255.631 504.882 254.247 506.975 253.582 509.2C252.981 511.213 252.968 513.335 254.052 515.531L246.506 514.942C246.688 510.611 249.591 507.981 252.919 505.054C252.968 505.011 253.018 504.968 253.067 504.924Z" fill="#C0C0C0" stroke="black" stroke-width="0.939514"/>
</svg>
