<svg width="632" height="635" viewBox="0 0 632 635" fill="none" xmlns="http://www.w3.org/2000/svg">
<path d="M629.79 317.5C629.79 491.64 489.292 632.79 316 632.79C142.708 632.79 2.20979 491.64 2.20979 317.5C2.20979 143.36 142.708 2.20979 316 2.20979C489.292 2.20979 629.79 143.36 629.79 317.5Z" fill="#333333" stroke="black" stroke-width="4.41958"/>
<path d="M608.799 316.945C608.799 479.129 477.947 610.587 316.554 610.587C155.162 610.587 24.3094 479.129 24.3094 316.945C24.3094 154.761 155.162 23.3023 316.554 23.3023C477.947 23.3023 608.799 154.761 608.799 316.945Z" fill="#252525" stroke="black" stroke-width="4.41958"/>
<path d="M104 222.525L186.957 261.857L131.155 281.673L198.595 287.377L112.057 345.025L207.846 330.613L150.253 396.066L205.757 387.359L194.716 440.502L274.092 393.664L249.623 437.2L305.425 423.388L257.68 459.718L308.11 469.926L264.543 492.445H303.933L277.374 549.792L329.297 523.07L349.589 560L354.96 520.067L378.534 530.876L372.865 482.837L389.874 506.857L392.559 472.929C402.009 490.243 420.908 525.292 420.908 526.973C420.908 528.654 430.059 501.853 434.635 488.241L465.968 502.653L454.628 475.631L499.688 472.929L456.717 446.207L508.938 430.294C485.861 429.694 439.409 428.493 438.216 428.493C437.022 428.493 448.66 416.483 454.628 410.478L427.175 408.076L465.968 379.853L407.778 362.739L462.088 352.23L415.537 330.613L473.428 336.317L456.717 309.295L499.688 268.162L445.974 245.343L482.38 185.294L434.635 196.703L441.2 139.357L408.375 173.585L412.254 116.538L381.22 169.081L366.896 90.1164L335.862 157.071L331.983 116.538L322.732 152.267L282.746 70L271.705 152.267L252.308 108.732L254.099 159.473L198.595 106.029L218.588 178.388L142.196 154.069L207.846 207.812L153.834 191.599L185.167 234.534L104 222.525Z" fill="#D9D9D9" stroke="black" stroke-width="1.5"/>
<path d="M389.872 264.532C389.872 310.009 360.654 339.619 314.674 339.619C268.693 339.619 228.136 295.811 228.136 250.334C228.136 204.857 268.693 178.087 314.674 178.087C360.654 178.087 389.872 219.055 389.872 264.532Z" fill="#363636"/>
<rect width="88.4145" height="102.091" rx="13.8456" transform="matrix(0.946311 -0.323258 0.319718 0.947513 293.857 345.981)" fill="#363636"/>
<rect width="12.1058" height="66.6985" transform="matrix(0.994208 0.107473 -0.106176 0.994347 334.767 434.366)" fill="#363636"/>
<rect width="12.1315" height="66.558" transform="matrix(0.800759 -0.598986 0.594267 0.804268 388.772 418.885)" fill="#363636"/>
<path d="M319.45 489.743L330.789 489.743L341.233 496.649C341.902 501.257 340.897 503.83 338.216 508.412L314.675 499.749C312.219 494.078 313.342 493.73 319.45 489.743Z" fill="#363636"/>
<path d="M442.514 455.139L432.464 460.424L426.387 471.411C427.916 475.807 429.991 477.619 434.476 480.43L451.351 461.781C450.918 455.61 449.762 455.825 442.514 455.139Z" fill="#363636"/>
<rect width="83.7075" height="15.3643" transform="matrix(0.995756 -0.0920281 0.090914 0.995859 225.598 353.927)" fill="#363636"/>
<path d="M214.41 353.731L226.048 357.033C226.247 360.436 226.525 367.362 226.048 367.842C225.451 368.443 222.765 375.949 221.87 375.949C220.975 375.949 222.765 369.043 221.87 369.944C220.975 370.845 217.991 375.649 216.499 375.048C215.007 374.448 217.991 368.142 217.394 369.043C216.797 369.944 211.426 372.646 210.531 371.445C209.815 370.484 214.211 366.641 216.499 364.84C214.41 365.54 209.874 366.881 208.442 366.641C207.01 366.401 208.243 364.74 209.039 363.939L217.991 359.135C217.394 358.735 215.842 357.754 214.41 357.033C212.978 356.313 213.813 354.531 214.41 353.731Z" fill="#363636"/>
<path d="M440.304 263.057C439.588 263.057 436.027 271.063 434.336 275.066L440.304 279.57L444.482 282.272L448.361 283.473C449.157 283.273 450.927 282.753 451.644 282.272C452.36 281.792 449.754 279.67 448.361 278.669C449.157 278.97 451.226 279.57 453.136 279.57C455.045 279.57 454.926 278.369 454.628 277.769L450.748 275.066C452.041 274.766 454.866 273.986 455.821 273.265C456.776 272.544 455.423 271.363 454.628 270.863C452.439 270.663 448.361 269.962 449.555 268.761C451.047 267.26 452.837 268.761 453.136 266.66C453.434 264.558 452.539 264.558 449.555 264.558H449.555C446.571 264.558 441.796 269.362 441.498 268.761C441.199 268.161 442.691 266.96 442.691 264.558C442.691 262.156 441.199 263.057 440.304 263.057Z" fill="#363636"/>
<path d="M214.41 353.731L226.048 357.033C226.247 360.436 226.525 367.362 226.048 367.842C225.451 368.443 222.765 375.949 221.87 375.949C220.975 375.949 222.765 369.043 221.87 369.944C220.975 370.845 217.991 375.649 216.499 375.048C215.007 374.448 217.991 368.142 217.394 369.043C216.797 369.944 211.426 372.646 210.531 371.445C209.815 370.484 214.211 366.641 216.499 364.84C214.41 365.54 209.874 366.881 208.442 366.641C207.01 366.401 208.243 364.74 209.039 363.939L217.991 359.135C217.394 358.735 215.842 357.754 214.41 357.033C212.978 356.313 213.813 354.531 214.41 353.731Z" stroke="black" stroke-width="0.329657"/>
<path d="M440.304 263.057C439.588 263.057 436.027 271.063 434.336 275.066L440.304 279.57L444.482 282.272L448.361 283.473C449.157 283.273 450.927 282.753 451.644 282.272C452.36 281.792 449.754 279.67 448.361 278.669C449.157 278.97 451.226 279.57 453.136 279.57C455.045 279.57 454.926 278.369 454.628 277.769L450.748 275.066C452.041 274.766 454.866 273.986 455.821 273.265C456.776 272.544 455.423 271.363 454.628 270.863C452.439 270.663 448.361 269.962 449.555 268.761C451.047 267.26 452.837 268.761 453.136 266.66C453.434 264.558 452.539 264.558 449.555 264.558H449.555C446.571 264.558 441.796 269.362 441.498 268.761C441.199 268.161 442.691 266.96 442.691 264.558C442.691 262.156 441.199 263.057 440.304 263.057Z" stroke="black" stroke-width="0.329657"/>
<rect width="86.0122" height="15.6441" transform="matrix(0.766071 -0.642756 0.638116 0.76994 368.115 325.603)" fill="#363636"/>
<path d="M380.625 252.247C383.297 294.946 349.4 318.165 308.112 314.098C269.714 320.679 240.829 293.632 240.075 251.647C240.075 214.669 271.111 185.893 310.499 185.893C349.888 185.893 380.625 215.269 380.625 252.247Z" fill="#D9D9D9"/>
<path d="M314.38 313.496L329.897 312.896L331.091 328.809L317.961 330.61L314.38 313.496Z" fill="#D9D9D9"/>
<path d="M329.221 312.407L344.817 308.392L349.302 322.846L337.083 328.005L329.221 312.407Z" fill="#D9D9D9"/>
<path d="M344.819 307.792L358.247 300.586L365.313 317.098L353.05 322.182L344.819 307.792Z" fill="#D9D9D9"/>
<path d="M358.245 301.186L369.882 290.077L377.343 308.092L368.092 314.997L358.245 301.186Z" fill="#D9D9D9"/>
<ellipse cx="303.636" cy="273.866" rx="22.3805" ry="21.9179" fill="#363636"/>
<ellipse cx="354.365" cy="257.052" rx="22.3805" ry="21.9179" fill="#363636"/>
<rect width="35.104" height="4.90458" rx="1.31863" transform="matrix(0.996981 -0.0776417 0.0766995 0.997054 229.277 358.281)" fill="#D9D9D9"/>
<rect width="35.1043" height="4.90454" rx="1.31863" transform="matrix(0.996366 -0.0851755 0.0841432 0.996454 268.118 355.089)" fill="#D9D9D9"/>
<rect width="34.1273" height="4.87501" rx="1.31863" transform="matrix(0.0960611 -0.995375 0.995261 0.0972371 335.684 462.127)" fill="#D9D9D9"/>
<rect width="34.4041" height="4.88526" rx="1.31863" transform="matrix(-0.589215 -0.807976 0.80451 -0.593938 409.507 441.501)" fill="#D9D9D9"/>
<rect width="34.9838" height="4.88526" rx="1.31863" transform="matrix(-0.589215 -0.807976 0.80451 -0.593938 432.597 472.689)" fill="#D9D9D9"/>
<rect width="34.1273" height="4.87501" rx="1.31863" transform="matrix(0.0960611 -0.995375 0.995261 0.0972371 331.388 499.693)" fill="#D9D9D9"/>
<rect width="30.797" height="7.4434" rx="1.97794" transform="matrix(0.944024 -0.329876 0.326281 0.945273 308.705 355.581)" fill="#D9D9D9"/>
<rect width="30.797" height="7.4434" rx="1.97794" transform="matrix(0.944024 -0.329876 0.326281 0.945273 312.887 367.194)" fill="#D9D9D9"/>
<rect width="30.797" height="7.4434" rx="1.97794" transform="matrix(0.944024 -0.329876 0.326281 0.945273 317.064 378.603)" fill="#D9D9D9"/>
<rect width="30.797" height="7.4434" rx="1.97794" transform="matrix(0.944024 -0.329876 0.326281 0.945273 342.727 343.174)" fill="#D9D9D9"/>
<rect width="30.797" height="7.4434" rx="1.97794" transform="matrix(0.944024 -0.329876 0.326281 0.945273 347.502 354.583)" fill="#D9D9D9"/>
<rect width="30.797" height="7.4434" rx="1.97794" transform="matrix(0.944024 -0.329876 0.326281 0.945273 351.082 366.593)" fill="#D9D9D9"/>
<rect width="11.672" height="7.62799" rx="3.29657" transform="matrix(0.950749 -0.309962 0.306535 0.951859 330.603 334.543)" fill="#D9D9D9"/>
<rect width="11.672" height="7.62799" rx="3.29657" transform="matrix(0.950749 -0.309962 0.306535 0.951859 347.502 381.069)" fill="#D9D9D9"/>
<rect width="19.6454" height="7.62799" rx="3.29657" transform="matrix(0.950749 -0.309962 0.306535 0.951859 321.348 390.235)" fill="#D9D9D9"/>
<rect width="19.6488" height="7.62668" rx="3.29657" transform="matrix(0.935732 -0.352711 0.348932 0.937148 365.406 374.172)" fill="#D9D9D9"/>
<rect width="11.672" height="7.62799" rx="3.29657" transform="matrix(0.950749 -0.309962 0.306535 0.951859 351.68 392.478)" fill="#D9D9D9"/>
<rect width="15.2677" height="8.9807" rx="3.29657" transform="matrix(0.950749 -0.309962 0.306535 0.951859 353.836 403.751)" fill="#D9D9D9"/>
<rect width="39.2106" height="4.89213" rx="1.31863" transform="matrix(0.758821 -0.651299 0.646685 0.762757 372.566 328.527)" fill="#D9D9D9"/>
<rect width="38.2237" height="4.89269" rx="1.31863" transform="matrix(0.771107 -0.636706 0.63205 0.774928 407.59 298.803)" fill="#D9D9D9"/>
<ellipse cx="347.8" cy="411.379" rx="12.2347" ry="12.31" fill="#D9D9D9"/>
<ellipse cx="377.043" cy="400.569" rx="12.2347" ry="12.31" fill="#D9D9D9"/>
<ellipse cx="377.342" cy="400.87" rx="5.37132" ry="5.40441" fill="#363636"/>
<ellipse cx="348.098" cy="411.679" rx="5.37132" ry="5.40441" fill="#363636"/>
</svg>
