<svg width="589" height="592" viewBox="0 0 589 592" fill="none" xmlns="http://www.w3.org/2000/svg">
<path d="M586.699 295.852C586.699 458.036 455.847 589.495 294.455 589.495C133.062 589.495 2.20979 458.036 2.20979 295.852C2.20979 133.668 133.062 2.20979 294.455 2.20979C455.847 2.20979 586.699 133.668 586.699 295.852Z" fill="#252525" stroke="black" stroke-width="4.41958"/>
<path d="M212.649 196.122C202.711 197.083 198.891 207.209 198.223 212.151C195.338 224.975 206.638 234.058 212.649 236.997H301.212L209.844 328.765H102.848C97.5047 330.902 86.6581 339.184 86.0169 355.214C85.3757 371.243 103.115 378.724 112.065 380.46C144.391 380.727 211.768 381.101 222.668 380.46C233.568 379.819 239.499 373.514 241.102 370.442L275.565 337.181L307.624 370.442C294.4 383.8 262.02 416.526 238.297 440.57C208.642 470.626 237.896 484.251 252.723 487.457C264.585 490.021 274.229 478.908 277.569 473.03C296.537 454.596 338.16 413.962 352.907 398.894C371.341 380.059 370.139 380.861 372.142 367.236C374.387 355.695 347.698 333.307 334.473 323.556L376.15 283.482L396.187 303.519C398.751 306.084 401.263 306.19 402.198 305.923C423.704 306.057 468.079 306.244 473.529 305.923C480.341 305.522 486.753 297.908 487.955 283.482C488.917 271.941 474.197 265.85 466.716 264.247H416.223C396.854 245.145 356.514 205.419 350.102 199.327C343.69 193.236 334.607 193.316 330.867 194.118C295.602 194.385 222.588 195.16 212.649 196.122Z" fill="#050505" stroke="white" stroke-width="8.55319"/>
<circle cx="418.227" cy="180.092" r="45.8154" fill="#050505" stroke="white" stroke-width="8.55319"/>
</svg>
