<svg width="632" height="635" viewBox="0 0 632 635" fill="none" xmlns="http://www.w3.org/2000/svg">
<path d="M629.79 317.5C629.79 491.64 489.292 632.79 316 632.79C142.708 632.79 2.20979 491.64 2.20979 317.5C2.20979 143.36 142.708 2.20979 316 2.20979C489.292 2.20979 629.79 143.36 629.79 317.5Z" fill="#333333" stroke="black" stroke-width="4.41958"/>
<path d="M608.799 316.945C608.799 479.129 477.947 610.587 316.554 610.587C155.162 610.587 24.3094 479.129 24.3094 316.945C24.3094 154.761 155.162 23.3023 316.554 23.3023C477.947 23.3023 608.799 154.761 608.799 316.945Z" fill="#252525" stroke="black" stroke-width="4.41958"/>
<path d="M273.749 239.458C278.188 230.586 275.598 195.099 273.749 178.464V176.154H353.75C353.596 194.483 353.658 232.804 355.138 239.458C356.987 247.776 420.804 335.57 455.024 394.715C489.244 453.861 471.672 488.054 459.648 510.234C447.625 532.413 377.335 554.593 321.842 556.441C266.35 558.29 206.233 537.034 181.261 521.324C156.289 505.613 152.59 466.799 164.613 421.516C176.637 376.232 268.199 250.548 273.749 239.458Z" fill="#D9D9D9" stroke="black" stroke-width="3.21827"/>
<path d="M281.123 165.128L276.989 81.0536C276.844 78.1133 283.667 76.4594 287.096 76H337.173C347.831 76 351.415 79.3691 351.874 81.0536L346.361 165.128H281.123Z" fill="#9C9C9C" stroke="black" stroke-width="3.21827"/>
<path d="M313.284 83.3503C287.924 84.0854 279.44 80.5938 278.368 78.7561C278.054 78.3885 283.138 77.2247 285.719 76.459H343.606C344.678 76.7653 347.373 77.6535 349.579 78.7561C352.335 80.1343 344.984 82.4314 313.284 83.3503Z" fill="#606060" stroke="black" stroke-width="3.21827"/>
<circle cx="290.771" cy="91.1596" r="3.44449" fill="#575757" stroke="black" stroke-width="3.21827"/>
<circle cx="305.473" cy="91.1606" r="1.60914" fill="#575757" stroke="black" stroke-width="1.37593"/>
<circle cx="319.256" cy="90.24" r="1.60914" fill="#575757" stroke="black" stroke-width="1.37593"/>
<circle cx="330.74" cy="94.3767" r="1.60914" fill="#575757" stroke="black" stroke-width="0.457088"/>
<circle cx="333.499" cy="106.322" r="1.60914" fill="#575757" stroke="black" stroke-width="2.29477"/>
<circle cx="322.933" cy="104.024" r="1.60914" fill="#575757" stroke="black" stroke-width="1.37593"/>
<circle cx="298.583" cy="106.322" r="2.06623" fill="#575757" stroke="black" stroke-width="3.21827"/>
<circle cx="343.145" cy="106.781" r="1.60914" fill="#575757" stroke="black" stroke-width="1.37593"/>
<path d="M259.475 116.805C260.558 110.923 321.553 112.295 321.553 112.295C321.553 112.295 358.704 113.18 363.065 113.18C367.427 113.18 372.606 123.6 372.606 123.6C374.051 123.587 374.24 162.785 372.606 166.64C371.111 170.172 367.382 175.798 363.065 176.155H266.29C261.565 176.155 256.359 169.135 255.396 163.291C253.559 152.131 253.558 144.914 254.018 134.807C254.615 121.682 259.475 116.805 259.475 116.805Z" fill="#D9D9D9" stroke="black" stroke-width="3.21827"/>
<path d="M178.214 440.319C178.214 440.319 194.83 387.394 205.32 372.325C228.291 366.353 255.397 364.056 316.5 360.84C365.382 358.267 407.006 368.344 421.707 373.703C438.984 394.163 447.712 431.271 451.454 447.178L451.569 447.67C455.245 463.29 447.435 486.721 436.868 502.801C426.301 518.88 395.061 528.069 376.225 533.122C357.388 538.176 253.1 533.122 238.398 530.366C223.697 527.609 197.969 514.286 184.646 494.072C171.323 473.857 178.214 440.319 178.214 440.319Z" fill="#B1B1B1" stroke="black" stroke-width="3.21827"/>
<path d="M205.781 372.059C281.989 379.128 328.216 380.324 421.709 373.704C404.683 364.345 314.023 348.661 205.781 372.059Z" stroke="black" stroke-width="3.21827"/>
<path d="M268.261 348.894C261.829 341.543 264.127 325.923 274.693 309.383C282.939 296.477 300.89 290.389 309.442 288.819C309.651 288.476 312.458 287.974 322.014 288.71C333.958 289.628 345.903 303.411 353.714 311.681C361.524 319.95 359.227 341.083 357.389 343.84C355.551 346.596 347.282 345.218 351.876 356.704C356.47 368.189 351.416 371.865 342.687 373.702C333.958 375.54 329.364 378.296 328.905 380.134C328.537 381.604 329.058 384.422 329.364 385.647H324.311C321.738 381.972 319.257 384.728 318.338 386.566H313.285C311.447 381.788 308.537 384.575 307.312 386.566H302.718C301.248 383.626 298.736 385.341 297.664 386.566H292.151C291.232 387.025 289.946 386.75 292.151 381.972C294.908 375.999 277.909 374.621 271.937 373.702C267.159 372.967 267.496 366.658 268.261 363.595C270.405 361.145 273.407 354.774 268.261 348.894Z" fill="black"/>
<path d="M310.069 288.71C309.866 288.743 309.657 288.78 309.442 288.819M309.442 288.819C300.89 290.389 282.939 296.477 274.693 309.383C264.127 325.923 261.829 341.543 268.261 348.894C273.407 354.774 270.405 361.145 268.261 363.595C267.496 366.658 267.159 372.967 271.937 373.702C277.909 374.621 294.908 375.999 292.151 381.972C289.946 386.75 291.232 387.025 292.151 386.566H297.664C298.736 385.341 301.248 383.626 302.718 386.566H307.312C308.537 384.575 311.447 381.788 313.285 386.566H318.338C319.257 384.728 321.738 381.972 324.311 385.647H329.364C329.058 384.422 328.537 381.604 328.905 380.134C329.364 378.296 333.958 375.54 342.687 373.702C351.416 371.865 356.47 368.189 351.876 356.704C347.282 345.218 355.551 346.596 357.389 343.84C359.227 341.083 361.524 319.95 353.714 311.681C345.903 303.411 333.958 289.628 322.014 288.71C312.458 287.974 309.651 288.476 309.442 288.819Z" stroke="black" stroke-width="3.21827"/>
<path d="M243.912 367.728L282.503 381.51V390.699C268.721 385.798 240.42 375.997 237.48 375.997C233.805 375.997 225.535 379.673 223.238 375.997C220.941 372.322 229.211 371.862 231.967 371.862C234.172 371.862 234.111 365.737 233.805 362.674C243.361 350.545 244.525 360.99 243.912 367.728Z" fill="black"/>
<path d="M248.966 412.291C250.436 412.291 271.937 400.653 282.503 394.834L285.719 402.644C280.206 405.86 267.251 413.302 259.532 417.345C249.885 422.399 254.019 427.912 253.56 431.128C253.1 434.344 247.587 433.884 243.453 431.128C239.318 428.371 242.074 422.858 241.156 420.102C240.237 417.345 232.886 426.534 228.751 418.723C224.616 410.913 247.128 412.291 248.966 412.291Z" fill="black"/>
<path d="M333.04 402.184C333.407 401.817 335.643 396.824 336.715 394.374C346.057 398.509 365.567 407.146 368.874 408.616C373.009 410.454 382.657 407.238 385.873 407.697C389.089 408.157 389.548 413.21 389.548 415.048C389.548 416.886 384.495 421.02 382.657 420.102C380.819 419.183 380.819 416.426 378.063 416.426C375.306 416.426 376.685 424.696 376.685 426.534C376.685 428.371 371.171 430.668 368.874 429.749C366.577 428.831 366.577 426.074 365.658 420.102C364.74 414.129 332.58 402.644 333.04 402.184Z" fill="black"/>
<path d="M374.387 368.647C374.02 369.749 349.119 377.682 336.715 381.51V390.239C348.813 386.105 373.744 377.651 376.685 376.916C380.36 375.997 383.576 377.835 385.873 379.213C388.17 380.591 393.683 377.835 395.061 373.7C396.44 369.565 388.17 370.484 386.792 370.484C385.414 370.484 384.495 370.484 383.576 368.647C382.657 366.809 384.035 362.674 383.576 360.377C383.116 358.08 378.982 358.08 376.685 358.999C374.387 359.918 374.847 367.268 374.387 368.647Z" fill="black"/>
<path d="M243.912 367.728L282.503 381.51V390.699C268.721 385.798 240.42 375.997 237.48 375.997C233.805 375.997 225.535 379.673 223.238 375.997C220.941 372.322 229.211 371.862 231.967 371.862C234.172 371.862 234.111 365.737 233.805 362.674C243.361 350.545 244.525 360.99 243.912 367.728Z" stroke="black" stroke-width="3.21827"/>
<path d="M248.966 412.291C250.436 412.291 271.937 400.653 282.503 394.834L285.719 402.644C280.206 405.86 267.251 413.302 259.532 417.345C249.885 422.399 254.019 427.912 253.56 431.128C253.1 434.344 247.587 433.884 243.453 431.128C239.318 428.371 242.074 422.858 241.156 420.102C240.237 417.345 232.886 426.534 228.751 418.723C224.616 410.913 247.128 412.291 248.966 412.291Z" stroke="black" stroke-width="3.21827"/>
<path d="M333.04 402.184C333.407 401.817 335.643 396.824 336.715 394.374C346.057 398.509 365.567 407.146 368.874 408.616C373.009 410.454 382.657 407.238 385.873 407.697C389.089 408.157 389.548 413.21 389.548 415.048C389.548 416.886 384.495 421.02 382.657 420.102C380.819 419.183 380.819 416.426 378.063 416.426C375.306 416.426 376.685 424.696 376.685 426.534C376.685 428.371 371.171 430.668 368.874 429.749C366.577 428.831 366.577 426.074 365.658 420.102C364.74 414.129 332.58 402.644 333.04 402.184Z" stroke="black" stroke-width="3.21827"/>
<path d="M374.387 368.647C374.02 369.749 349.119 377.682 336.715 381.51V390.239C348.813 386.105 373.744 377.651 376.685 376.916C380.36 375.997 383.576 377.835 385.873 379.213C388.17 380.591 393.683 377.835 395.061 373.7C396.44 369.565 388.17 370.484 386.792 370.484C385.414 370.484 384.495 370.484 383.576 368.647C382.657 366.809 384.035 362.674 383.576 360.377C383.116 358.08 378.982 358.08 376.685 358.999C374.387 359.918 374.847 367.268 374.387 368.647Z" stroke="black" stroke-width="3.21827"/>
<path d="M288.477 342.461C297.298 339.888 301.647 341.695 302.719 342.92C305.935 344.413 303.638 349.811 302.719 351.19C301.8 352.568 291.693 364.053 289.855 364.972C288.017 365.891 283.423 364.053 281.585 362.675C279.748 361.297 276.991 354.865 276.991 351.19C276.991 347.514 277.451 345.677 288.477 342.461Z" fill="#D9D9D9"/>
<path d="M318.798 348.892C316.593 344.85 319.717 342.307 321.555 341.542C337.175 341.542 342.229 344.298 344.067 345.677C345.904 347.055 345.904 352.108 345.904 353.487C345.904 354.865 339.932 361.756 338.094 363.594C336.256 365.432 331.203 363.594 330.284 362.675C329.365 361.756 321.555 353.946 318.798 348.892Z" fill="#D9D9D9"/>
<path d="M309.61 373.701V359C308.691 358.081 305.016 359.919 303.638 363.594C302.259 367.269 299.043 370.485 298.125 372.782C297.389 374.62 298.431 376.305 299.043 376.917C300.881 377.377 304.648 378.02 305.016 376.917C305.383 375.815 308.232 374.314 309.61 373.701Z" fill="#D9D9D9"/>
<path d="M312.367 373.701V359C312.367 358.081 315.583 358.081 315.583 359C315.583 359.919 320.177 366.81 321.555 370.485C322.933 374.161 322.474 375.539 321.555 375.539C320.636 375.539 321.096 377.377 320.177 377.836C319.258 378.295 316.501 377.836 315.583 376.917L312.367 373.701Z" fill="#D9D9D9"/>
<path d="M288.477 342.461C297.298 339.888 301.647 341.695 302.719 342.92C305.935 344.413 303.638 349.811 302.719 351.19C301.8 352.568 291.693 364.053 289.855 364.972C288.017 365.891 283.423 364.053 281.585 362.675C279.748 361.297 276.991 354.865 276.991 351.19C276.991 347.514 277.451 345.677 288.477 342.461Z" stroke="black" stroke-width="3.21827"/>
<path d="M318.798 348.892C316.593 344.85 319.717 342.307 321.555 341.542C337.175 341.542 342.229 344.298 344.067 345.677C345.904 347.055 345.904 352.108 345.904 353.487C345.904 354.865 339.932 361.756 338.094 363.594C336.256 365.432 331.203 363.594 330.284 362.675C329.365 361.756 321.555 353.946 318.798 348.892Z" stroke="black" stroke-width="3.21827"/>
<path d="M309.61 373.701V359C308.691 358.081 305.016 359.919 303.638 363.594C302.259 367.269 299.043 370.485 298.125 372.782C297.389 374.62 298.431 376.305 299.043 376.917C300.881 377.377 304.648 378.02 305.016 376.917C305.383 375.815 308.232 374.314 309.61 373.701Z" stroke="black" stroke-width="3.21827"/>
<path d="M312.367 373.701V359C312.367 358.081 315.583 358.081 315.583 359C315.583 359.919 320.177 366.81 321.555 370.485C322.933 374.161 322.474 375.539 321.555 375.539C320.636 375.539 321.096 377.377 320.177 377.836C319.258 378.295 316.501 377.836 315.583 376.917L312.367 373.701Z" stroke="black" stroke-width="3.21827"/>
<circle cx="192.914" cy="445.371" r="3.90391" stroke="black" stroke-width="3.21827"/>
<circle cx="254.015" cy="495.448" r="5.28217" stroke="black" stroke-width="3.21827"/>
<circle cx="219.561" cy="396.671" r="3.90391" stroke="black" stroke-width="3.21827"/>
<circle cx="337.632" cy="430.21" r="5.28217" stroke="black" stroke-width="3.21827"/>
<circle cx="355.089" cy="444.912" r="3.44449" stroke="black" stroke-width="3.21827"/>
<circle cx="333.038" cy="497.285" r="3.44449" stroke="black" stroke-width="3.21827"/>
<circle cx="385.411" cy="458.694" r="3.44449" stroke="black" stroke-width="3.21827"/>
<circle cx="405.625" cy="422.86" r="3.44449" stroke="black" stroke-width="3.21827"/>
<circle cx="405.625" cy="491.773" r="3.44449" stroke="black" stroke-width="3.21827"/>
<circle cx="302.716" cy="428.372" r="3.44449" stroke="black" stroke-width="3.21827"/>
<circle cx="411.598" cy="388.403" r="2.06623" stroke="black" stroke-width="3.21827"/>
<circle cx="440.083" cy="453.641" r="2.06623" stroke="black" stroke-width="3.21827"/>
<circle cx="250.802" cy="409.535" r="3.90391" stroke="black" stroke-width="3.21827"/>
<circle cx="241.613" cy="458.235" r="3.90391" stroke="black" stroke-width="3.21827"/>
</svg>
