<svg width="175" height="175" viewBox="0 0 175 175" fill="none" xmlns="http://www.w3.org/2000/svg">
<circle cx="87.5" cy="87.5" r="86.8881" fill="#333333" stroke="black" stroke-width="1.22378"/>
<circle cx="87.6527" cy="87.3466" r="80.9222" fill="#252525" stroke="black" stroke-width="1.22378"/>
<path d="M82.0218 29.7617C76.5682 36.334 76.6032 43.92 77.3023 46.8915C78.8755 47.4159 82.8258 48.4647 86.042 48.4647C90.0623 48.4647 92.5094 38.5014 96.0053 33.0828C99.5012 27.6642 96.1801 21.022 96.0053 18.2253C95.8655 15.9879 95.1313 13.9137 94.7818 13.1562C96.2384 13.972 99.3963 15.953 100.375 17.3513C101.599 19.0993 103.172 22.7699 103.172 25.2171C103.172 27.6642 101.948 33.782 105.444 40.2494C108.94 46.7167 110.164 40.5989 113.135 40.2494C116.107 39.8998 116.107 34.8307 115.407 30.4609C114.708 26.091 114.708 24.8675 116.107 25.2171C117.505 25.5666 121.176 37.2779 121.176 42.6965C121.176 48.1151 123.798 51.611 126.07 53.0093C128.342 54.4077 132.363 65.2449 129.741 70.314C127.119 75.383 131.139 77.3057 133.586 77.3057C136.033 77.3057 136.208 67.5173 136.383 70.314C136.558 73.1107 139.179 79.7529 140.053 85.5211C140.927 91.2893 139.005 98.1063 138.306 99.155C137.606 100.204 136.383 108.419 135.334 109.992C134.285 111.565 130.964 121.354 129.741 121.529C128.517 121.703 122.05 128.346 121.176 130.618C120.302 132.89 111.562 140.581 109.29 139.707C107.017 138.833 104.395 140.581 94.7818 144.776C85.1681 148.971 70.6602 144.776 61.0465 142.854C51.4328 140.931 48.6361 129.394 48.6361 123.626C48.6361 117.858 44.6158 118.732 39.1972 113.313C33.7786 107.895 41.2947 100.029 46.8882 95.3095C52.4816 90.5901 50.7336 88.4926 52.6564 83.5983C54.5791 78.7041 50.2092 75.7326 50.7336 67.5173C51.258 59.3019 58.2498 65.2449 57.201 71.7123C56.1522 78.1797 58.5994 79.0537 63.6684 77.3057C68.7374 75.5578 71.3593 62.4482 67.8635 54.2329C64.3676 46.0176 66.6399 41.6477 69.6114 34.8307C72.5829 28.0138 88.8388 21.5464 82.0218 29.7617Z" fill="#C1241A"/>
<path d="M132.887 49.1639C135.404 47.4858 138.713 42.5217 140.053 40.2494C141.801 41.4729 139.179 46.8915 140.053 49.1639C140.927 51.4362 140.753 60.0011 140.053 61.5743C139.354 63.1474 134.285 66.8181 133.586 65.9441C132.887 65.0701 133.586 63.3222 132.887 60.7003C132.188 58.0784 129.741 51.2614 132.887 49.1639Z" fill="#C1241A"/>
<path d="M82.0218 29.7617C76.5682 36.334 76.6032 43.92 77.3023 46.8915C78.8755 47.4159 82.8258 48.4647 86.042 48.4647C90.0623 48.4647 92.5094 38.5014 96.0053 33.0828C99.5012 27.6642 96.1801 21.022 96.0053 18.2253C95.8655 15.9879 95.1313 13.9137 94.7818 13.1562C96.2384 13.972 99.3963 15.953 100.375 17.3513C101.599 19.0993 103.172 22.7699 103.172 25.2171C103.172 27.6642 101.948 33.782 105.444 40.2494C108.94 46.7167 110.164 40.5989 113.135 40.2494C116.107 39.8998 116.107 34.8307 115.407 30.4609C114.708 26.091 114.708 24.8675 116.107 25.2171C117.505 25.5666 121.176 37.2779 121.176 42.6965C121.176 48.1151 123.798 51.611 126.07 53.0093C128.342 54.4077 132.363 65.2449 129.741 70.314C127.119 75.383 131.139 77.3057 133.586 77.3057C136.033 77.3057 136.208 67.5173 136.383 70.314C136.558 73.1107 139.179 79.7529 140.053 85.5211C140.927 91.2893 139.005 98.1063 138.306 99.155C137.606 100.204 136.383 108.419 135.334 109.992C134.285 111.565 130.964 121.354 129.741 121.529C128.517 121.703 122.05 128.346 121.176 130.618C120.302 132.89 111.562 140.581 109.29 139.707C107.017 138.833 104.395 140.581 94.7818 144.776C85.1681 148.971 70.6602 144.776 61.0465 142.854C51.4328 140.931 48.6361 129.394 48.6361 123.626C48.6361 117.858 44.6158 118.732 39.1972 113.313C33.7786 107.895 41.2947 100.029 46.8882 95.3095C52.4816 90.5901 50.7336 88.4926 52.6564 83.5983C54.5791 78.7041 50.2092 75.7326 50.7336 67.5173C51.258 59.3019 58.2498 65.2449 57.201 71.7123C56.1522 78.1797 58.5994 79.0537 63.6684 77.3057C68.7374 75.5578 71.3593 62.4482 67.8635 54.2329C64.3676 46.0176 66.6399 41.6477 69.6114 34.8307C72.5829 28.0138 88.8388 21.5464 82.0218 29.7617Z" stroke="black" stroke-width="0.174794"/>
<path d="M132.887 49.1639C135.404 47.4858 138.713 42.5217 140.053 40.2494C141.801 41.4729 139.179 46.8915 140.053 49.1639C140.927 51.4362 140.753 60.0011 140.053 61.5743C139.354 63.1474 134.285 66.8181 133.586 65.9441C132.887 65.0701 133.586 63.3222 132.887 60.7003C132.188 58.0784 129.741 51.2614 132.887 49.1639Z" stroke="black" stroke-width="0.174794"/>
<path d="M58.7304 128.215C58.5206 128.529 58.8178 129.482 58.9926 129.919C58.9926 130.167 58.9401 130.714 58.7304 130.924C58.4682 131.186 57.9876 131.798 57.8565 132.541C57.7254 133.284 58.4682 134.245 58.7304 134.245C58.9925 134.245 60.5658 134.901 61.3523 135.032C62.1389 135.163 63.7121 135.25 63.7121 135.469C63.7121 135.644 64.4404 136.416 64.8045 136.78C65.3726 136.925 66.6661 137.269 67.2953 137.479C68.0819 137.741 69.087 137.479 69.3055 137.217C69.4803 137.007 70.0192 136.838 70.2668 136.78C70.5873 137.29 71.2544 138.388 71.3593 138.703C71.4904 139.096 74.1123 139.533 74.8115 139.533C75.5107 139.533 76.4283 139.008 76.8653 139.052C77.3023 139.096 77.8704 139.882 78.657 140.319C79.4435 140.756 82.284 140.276 83.4638 139.533C84.6437 138.79 85.1681 139.052 87.8337 139.882C90.4993 140.713 91.3296 133.502 91.7228 133.502C92.1161 133.502 97.2289 134.245 97.8406 134.245C98.4524 134.245 100.419 133.852 101.293 133.852C102.167 133.852 108.022 132.017 108.547 131.798C109.071 131.58 114.315 128.521 114.752 127.865C115.189 127.21 117.199 126.336 118.117 125.549C119.034 124.763 122.093 119.213 122.661 118.12C123.229 117.028 124.934 114.668 126.07 113.576C127.206 112.483 128.124 108.026 128.648 104.836C129.173 101.646 128.473 101.297 128.124 97.1889C127.774 93.0812 126.332 86.439 126.026 85.871C125.72 85.3029 122.05 79.5784 121.219 78.3985C120.389 77.2186 117.286 74.3345 115.713 73.2858C114.14 72.237 107.454 70.7513 106.537 70.2269C105.619 69.7025 95.5683 69.0907 94.6943 69.0907C93.8204 69.0907 92.0287 69.047 90.1934 69.0907C88.3581 69.1344 84.9059 70.358 83.1579 70.7513C81.41 71.1445 78.4822 72.8925 76.6468 73.5917C74.8115 74.2908 69.1307 78.7481 68.5189 79.7095C67.9071 80.6708 62.0078 87.7063 61.3523 88.624C60.6969 89.5416 60.9591 90.0223 60.7843 90.8963C60.6095 91.7703 59.954 93.256 59.6044 93.6056C59.2548 93.9552 58.9926 96.8393 58.7304 97.0141C58.4682 97.1889 57.2446 99.0679 56.764 99.5486C56.2833 100.029 55.453 102.127 54.4917 104.268C53.5303 106.409 54.6664 110.867 54.8412 111.478C55.016 112.09 56.764 113.357 57.2446 113.401C57.7253 113.445 57.2446 114.974 57.2446 115.63C57.2446 116.285 56.9388 117.509 56.764 118.033C56.5892 118.557 56.0211 119.781 55.89 119.956C55.7589 120.131 56.9825 121.616 57.2446 122.447C57.4544 123.111 59.313 123.597 60.2161 123.758C60.2307 124.413 60.2511 125.794 60.2161 126.074C60.1724 126.423 58.9926 127.822 58.7304 128.215Z" fill="#D9D9D9"/>
<path d="M58.7304 97.0141C58.4682 97.1889 57.2446 99.0679 56.764 99.5486C56.2833 100.029 55.453 102.127 54.4917 104.268C53.5303 106.409 54.6664 110.867 54.8412 111.478C55.016 112.09 56.764 113.357 57.2446 113.401C57.7253 113.445 57.2446 114.974 57.2446 115.63C57.2446 116.285 56.9388 117.509 56.764 118.033C56.5892 118.557 56.0211 119.781 55.89 119.956C55.7589 120.131 56.9825 121.616 57.2446 122.447C57.4544 123.111 59.313 123.597 60.2161 123.758C60.2307 124.413 60.2511 125.794 60.2161 126.074C60.1724 126.423 58.9926 127.822 58.7304 128.215C58.5206 128.529 58.8178 129.482 58.9926 129.919C58.9926 130.167 58.9401 130.714 58.7304 130.924C58.4682 131.186 57.9876 131.798 57.8565 132.541C57.7254 133.284 58.4682 134.245 58.7304 134.245C58.9925 134.245 60.5658 134.901 61.3523 135.032C62.1389 135.163 63.7121 135.25 63.7121 135.469C63.7121 135.644 64.4404 136.416 64.8045 136.78C65.3726 136.925 66.6661 137.269 67.2953 137.479C68.0819 137.741 69.087 137.479 69.3055 137.217C69.4803 137.007 70.0192 136.838 70.2668 136.78C70.5873 137.29 71.2544 138.388 71.3593 138.703C71.4904 139.096 74.1123 139.533 74.8115 139.533C75.5107 139.533 76.4283 139.008 76.8653 139.052C77.3023 139.096 77.8704 139.882 78.657 140.319C79.4435 140.756 82.284 140.276 83.4638 139.533C84.6437 138.79 85.1681 139.052 87.8337 139.882C90.4993 140.713 91.3296 133.502 91.7228 133.502C92.1161 133.502 97.2289 134.245 97.8406 134.245C98.4524 134.245 100.419 133.852 101.293 133.852C102.167 133.852 108.022 132.017 108.547 131.798C109.071 131.58 114.315 128.521 114.752 127.865C115.189 127.21 117.199 126.336 118.117 125.549C119.034 124.763 122.093 119.213 122.661 118.12C123.23 117.028 124.934 114.668 126.07 113.576C127.206 112.483 128.124 108.026 128.648 104.836C129.173 101.646 128.473 101.297 128.124 97.1889C127.774 93.0812 126.332 86.439 126.026 85.871C125.72 85.3029 122.05 79.5784 121.219 78.3985C120.389 77.2186 117.286 74.3345 115.713 73.2858C114.14 72.237 107.454 70.7513 106.537 70.2269C105.619 69.7025 95.5683 69.0907 94.6943 69.0907C93.8204 69.0907 92.0287 69.047 90.1934 69.0907C88.3581 69.1344 84.9059 70.358 83.1579 70.7513C81.41 71.1445 78.4822 72.8925 76.6468 73.5917C74.8115 74.2908 69.1307 78.7481 68.5189 79.7095C67.9071 80.6708 62.0078 87.7063 61.3523 88.624C60.6969 89.5416 60.9591 90.0223 60.7843 90.8963C60.6095 91.7703 59.954 93.256 59.6044 93.6056C59.2548 93.9552 58.9926 96.8393 58.7304 97.0141ZM58.7304 97.0141C60.289 96.2566 63.5985 94.6019 64.3675 94.0426M65.8533 129.526C66.2175 128.317 67.0157 125.881 67.2953 125.811M72.1896 131.798C72.6557 130.662 73.5967 128.285 73.6316 127.865M79.4872 133.502C79.7786 132.76 80.37 131.204 80.4049 130.924M86.916 129.526C87.3967 128.564 88.5241 126.633 89.1883 126.598C90.0186 126.554 92.6405 123.364 92.6842 122.447M60.2161 123.539C60.5949 122.447 61.4834 120.201 62.0078 119.956" stroke="black" stroke-width="0.436986"/>
<path d="M61.4399 127.821L59.2986 127.472L58.6869 128.608V129.569C58.6869 129.919 58.949 130.225 58.6869 130.399C58.4247 130.574 57.9003 131.623 57.944 132.89C57.9789 133.904 59.1821 134.507 59.7793 134.682L62.4012 135.25H63.7559L64.4551 136.474L66.2904 137.435H69.2182L70.2233 136.474L71.272 138.396L74.6805 139.445H75.6419L76.7344 138.746L77.2587 139.664C77.7103 139.838 78.7969 140.197 79.5311 140.232C80.4487 140.275 82.5026 139.882 83.8572 139.664C85.2119 139.445 84.7312 138.396 85.343 138.964C85.9548 139.532 87.1783 139.926 88.1397 139.882C89.101 139.838 89.538 138.833 90.0624 138.396C90.5868 137.959 91.3297 133.371 91.5482 133.589C91.7667 133.808 96.0491 133.852 96.9668 134.245C97.8845 134.638 99.8072 133.852 100.9 133.852C101.992 133.852 105.444 132.89 106.362 132.497C107.096 132.182 109.232 131.288 110.207 130.88C110.499 130.501 111.483 129.595 113.092 129.001C114.7 128.407 117.869 125.636 119.253 124.325C120.389 122.374 122.714 118.26 122.924 117.421C123.186 116.372 125.764 113.488 126.376 112.745C126.988 112.002 127.599 108.463 128.43 105.448C129.26 102.432 128.342 99.6794 128.211 99.0239C128.08 98.3684 127.949 92.8187 127.905 92.3817C127.862 91.9447 126.551 86.832 126.157 86.0891C125.764 85.3463 124.104 83.0302 123.142 81.1075C122.181 79.1848 117.374 74.3342 115.189 73.067C113.441 72.0532 108.168 70.7509 105.75 70.2266C106.071 70.5616 106.843 71.2578 107.367 71.3627C108.023 71.4938 112.611 73.067 114.009 73.7661C115.408 74.4653 119.603 78.6167 121.875 81.9378C123.693 84.5946 124.351 91.1145 124.453 94.0423C123.885 97.2614 122.399 104.748 121.001 108.943C119.253 114.187 113.31 116.809 111.649 117.421C109.989 118.033 105.007 118.12 103.522 117.727C102.036 117.334 101.468 117.727 99.8072 118.12C98.1466 118.513 96.8794 120.48 96.0491 121.398C95.2188 122.315 92.5532 125.855 92.2036 126.248C91.8541 126.641 90.3683 127.472 87.1783 129.22C84.6263 130.618 84.2505 132.89 84.3816 133.852C84.0903 133.633 83.3591 133.135 82.7648 132.89C82.1705 132.646 79.9826 133.429 78.963 133.852C78.8902 133.633 78.5522 132.995 77.7831 132.191C76.8218 131.186 74.6368 131.055 73.2385 131.317C71.8401 131.579 72.7578 132.934 70.9661 130.618C69.1745 128.302 65.9845 129.613 65.1979 128.957C64.5687 128.433 62.4304 127.982 61.4399 127.821Z" fill="#464646" stroke="black" stroke-width="0.174794"/>
<path d="M59.8231 130.268C60.0678 129.709 61.9352 129.161 62.8383 128.957C63.2899 129.044 64.2279 129.298 64.3678 129.613C64.5426 130.006 65.1106 131.098 64.761 131.492C64.4115 131.885 64.0182 132.584 63.8871 132.89C63.756 133.196 62.8383 134.026 62.2265 134.026C61.6147 134.026 59.3861 133.065 59.0802 132.89C58.7744 132.715 59.5172 130.967 59.8231 130.268Z" fill="#D3D3D3"/>
<path d="M65.5476 132.89C65.7224 132.103 65.7661 132.147 65.8972 131.492C65.9905 131.025 66.9666 130.57 67.6014 130.342C67.8199 129.804 69.1746 130.268 69.3931 130.88C69.6116 131.492 70.704 131.929 71.2284 132.54C71.7528 133.152 71.0099 133.108 70.704 133.371C70.3982 133.633 69.8301 134.026 69.3931 135.25C68.9561 136.473 68.388 135.905 67.8199 135.905C67.2519 135.905 65.3291 135.381 65.1543 135.031C64.9795 134.682 65.3728 133.676 65.5476 132.89Z" fill="#D3D3D3"/>
<path d="M72.3646 133.371C72.4345 132.846 74.0543 132.599 74.8554 132.54H75.9042C76.4723 132.54 76.9529 132.89 77.4336 133.371C77.9143 133.851 78.0017 134.55 77.8269 135.031C77.6521 135.512 77.2588 135.643 76.9529 135.905C76.647 136.167 76.2101 137.653 75.3361 137.915C74.4621 138.177 72.1461 137.216 71.9276 136.866C71.7091 136.517 71.9713 135.905 72.1461 135.25C72.3209 134.594 72.2772 134.026 72.3646 133.371Z" fill="#D3D3D3"/>
<path d="M79.9681 135.25C80.4226 134.725 81.5267 134.565 82.022 134.55C82.2113 134.478 82.7124 134.341 83.2018 134.376C83.8136 134.419 83.9447 135.031 83.6825 135.556C83.4203 136.08 83.6388 137.915 83.3329 138.309C83.027 138.702 80.4488 138.702 79.7059 138.614C78.9631 138.527 78.395 138.483 78.2202 138.309C78.0804 138.169 78.4824 136.648 78.7009 135.905C78.9339 135.905 79.5137 135.774 79.9681 135.25Z" fill="#D3D3D3"/>
<path d="M67.8199 130.268C67.7539 130.289 67.6803 130.314 67.6014 130.342M67.6014 130.342C66.9666 130.57 65.9905 131.025 65.8972 131.492C65.7661 132.147 65.7224 132.103 65.5476 132.89C65.3728 133.676 64.9795 134.682 65.1543 135.031C65.3291 135.381 67.2519 135.905 67.8199 135.905C68.388 135.905 68.9561 136.473 69.3931 135.25C69.8301 134.026 70.3982 133.633 70.704 133.371C71.0099 133.108 71.7528 133.152 71.2284 132.54C70.704 131.929 69.6116 131.492 69.3931 130.88C69.1746 130.268 67.8199 129.804 67.6014 130.342ZM62.8383 128.957C61.9352 129.161 60.0678 129.709 59.8231 130.268C59.5172 130.967 58.7744 132.715 59.0802 132.89C59.3861 133.065 61.6147 134.026 62.2265 134.026C62.8383 134.026 63.756 133.196 63.8871 132.89C64.0182 132.584 64.4115 131.885 64.761 131.492C65.1106 131.098 64.5426 130.006 64.3678 129.613C64.2279 129.298 63.2899 129.044 62.8383 128.957ZM74.8554 132.54C74.0543 132.599 72.4345 132.846 72.3646 133.371C72.2772 134.026 72.3209 134.594 72.1461 135.25C71.9713 135.905 71.7091 136.517 71.9276 136.866C72.1461 137.216 74.4621 138.177 75.3361 137.915C76.2101 137.653 76.647 136.167 76.9529 135.905C77.2588 135.643 77.6521 135.512 77.8269 135.031C78.0017 134.55 77.9143 133.851 77.4336 133.371C76.9529 132.89 76.4723 132.54 75.9042 132.54C75.4497 132.54 75.0156 132.54 74.8554 132.54ZM82.022 134.55C81.5267 134.565 80.4226 134.725 79.9681 135.25C79.5137 135.774 78.9339 135.905 78.7009 135.905C78.4824 136.648 78.0804 138.169 78.2202 138.309C78.395 138.483 78.9631 138.527 79.7059 138.614C80.4488 138.702 83.027 138.702 83.3329 138.309C83.6388 137.915 83.4203 136.08 83.6825 135.556C83.9447 135.031 83.8136 134.419 83.2018 134.376C82.7124 134.341 82.2113 134.478 82.022 134.55Z" stroke="black" stroke-width="0.174794"/>
<path d="M67.7324 113.182C68.5627 110.779 70.1795 111.478 70.4854 111.478C70.7331 111.566 71.2283 111.749 71.2283 111.784V114.319C71.2283 114.668 71.9275 116.372 72.0586 116.984C72.1897 117.596 73.457 119.956 73.457 120.393C73.457 120.83 73.5881 121.747 73.457 122.403C73.3259 123.058 71.6653 123.408 71.2283 123.452C70.7913 123.495 70.4854 122.621 69.9174 122.053C69.3493 121.485 68.8249 121.005 68.4753 120.873C68.1257 120.742 67.2955 121.31 66.9459 122.053C66.5963 122.796 66.0719 122.621 65.5912 122.621C65.1105 122.621 64.0617 120.436 64.4113 119.956C64.7609 119.475 66.9022 115.586 67.7324 113.182Z" fill="#4A4A4A"/>
<path d="M78.4386 99.8544C78.2988 96.813 81.7597 94.9747 83.5076 94.4358C83.8135 94.3341 86.785 94.4358 87.2657 94.4358C87.7464 94.4358 89.4069 95.5283 90.7616 96.0963C92.1162 96.6644 93.5146 99.4174 93.9079 99.8544C94.3012 100.291 95.6558 108.856 95.6558 109.643C95.6558 110.429 94.7382 113.969 94.7819 114.668C94.8256 115.367 92.291 117.509 91.5919 117.509C90.8927 117.509 87.7901 117.815 87.2657 117.509C86.7413 117.203 83.0706 116.984 82.4589 116.722C81.8471 116.46 79.8369 116.678 78.7445 116.416C77.652 116.154 77.1713 112.702 77.1713 111.478C77.1713 110.255 78.6134 103.656 78.4386 99.8544Z" fill="#4A4A4A"/>
<path d="M58.6431 99.8544C58.8179 99.2252 62.2119 97.4073 63.887 96.577C65.4164 96.1983 68.7637 95.4845 69.9174 95.6593C71.3594 95.8778 71.709 97.2325 71.709 97.8006C71.709 98.3687 70.8351 99.8544 70.8351 100.335C70.8351 100.816 70.2233 102.52 69.9174 103.044C69.6115 103.569 68.8249 106.103 68.4753 106.409C68.1956 106.654 68.0092 108.667 67.951 109.643C68.1257 109.643 68.7637 109.555 69.9174 109.206C71.3594 108.769 71.709 108.245 72.0586 108.026C72.4082 107.808 72.0586 108.769 71.709 109.206C71.3595 109.643 69.9174 110.211 69.9174 110.517C69.9174 110.823 67.951 110.998 67.6451 111.26C67.3392 111.522 66.5089 113.401 65.329 115.848C64.1492 118.295 63.887 118.208 63.45 118.208C63.013 118.208 64.4113 116.416 63.887 116.416C63.3626 116.416 61.0903 116.11 60.4785 115.848C59.8667 115.586 58.2062 113.882 57.5944 113.401C56.9826 112.92 56.6767 110.473 56.4582 110.211C56.2397 109.949 55.9775 108.944 55.5406 108.245C55.1036 107.545 55.759 107.808 55.9775 107.414C56.196 107.021 56.2834 105.317 56.4582 104.312C56.633 103.307 58.4247 100.641 58.6431 99.8544Z" fill="#4A4A4A"/>
<path d="M106.056 49.6885C106.814 49.6885 108.311 49.9332 108.241 50.912C109.902 48.9893 113.293 45.2836 113.572 45.843C113.852 46.4023 113.397 48.6397 113.135 49.6885C113.135 49.6885 113.126 51.6667 112.523 53.0096C111.99 54.1967 107.979 56.7603 106.949 57.346C109.21 56.2072 112.874 54.7348 112.523 55.9811C112.406 56.4002 111.764 58.3916 110.927 60.3509C110.083 62.3248 109.16 64.2825 108.853 64.6334C108.363 65.1927 105.244 66.9057 103.746 67.6923C102.614 71.7614 101.482 76.5625 100.637 79.5587L97.4038 77.6555C97.5667 77.1016 98.8621 72.9072 100.476 67.6923L98.5399 60.3509L99.8456 56.855L102.065 50.912L103.959 45.843L106.056 49.6885Z" fill="#4A4A4A"/>
<path d="M145.297 85.7835L146.346 86.9196C148.065 87.5314 151.677 88.755 152.377 88.755C153.076 88.755 153.017 89.629 152.901 90.0659C152.018 90.5358 150.93 91.1189 149.755 91.7541C148.662 92.3448 147.494 92.9804 146.346 93.612C144.949 94.3807 143.581 95.1434 142.413 95.8114C141.415 96.3824 140.564 96.8843 139.966 97.2617C139.602 97.4918 139.331 97.6756 139.18 97.8006C137.991 98.7794 131.627 97.8639 128.593 97.2837L117.902 103.525C117.705 102.561 117.443 101.382 117.204 100.335L128.593 94.4358L129.741 88.755C130.201 88.426 130.7 88.0719 131.226 87.6994C132.374 86.8884 133.657 85.9901 134.985 85.0734C136.636 83.9327 138.356 82.7634 139.966 81.698C141.157 80.9102 142.288 80.1793 143.287 79.5587C145.535 78.1627 147.118 77.3251 147.22 77.6555C147.5 78.5645 146.055 83.4529 145.297 85.7835Z" fill="#4A4A4A"/>
<path d="M106.056 49.6885C106.814 49.6885 108.311 49.9332 108.241 50.912M106.056 49.6885L103.959 45.843L102.065 50.912M106.056 49.6885C105.57 51.2554 104.995 53.1099 104.376 55.1071M108.241 50.912C109.902 48.9893 113.293 45.2836 113.572 45.843C113.852 46.4023 113.397 48.6397 113.135 49.6885M108.241 50.912C108.226 51.1213 107.984 52.1097 107.589 53.6213M100.637 79.5587L97.4038 77.6555C97.5667 77.1016 98.8621 72.9072 100.476 67.6923M100.637 79.5587L95.6558 77.2863M100.637 79.5587L103.959 78.7917M100.637 79.5587C101.482 76.5625 102.614 71.7614 103.746 67.6923M100.476 67.6923L98.5399 60.3509L99.8456 56.855M100.476 67.6923C101.12 65.6141 101.813 63.3739 102.506 61.1375M102.065 50.912L104.376 55.1071M102.065 50.912L99.8456 56.855M104.376 55.1071C103.78 57.0281 103.144 59.0812 102.506 61.1375M99.8456 56.855L102.506 61.1375M113.135 49.6885C113.135 49.6885 113.127 51.6667 112.523 53.0096C111.92 54.3525 106.867 57.4567 106.712 57.4668M113.135 49.6885L107.589 53.6213M106.712 57.4668C107.093 56.0593 107.324 54.6352 107.589 53.6213M106.712 57.4668C108.942 56.316 112.886 54.6903 112.523 55.9811C112.406 56.4002 111.764 58.3916 110.927 60.3509M106.712 57.4668C106.223 59.2712 105.554 61.1608 104.957 63.3224M103.746 67.6923C105.244 66.9057 108.363 65.1927 108.853 64.6334C109.16 64.2825 110.083 62.3248 110.927 60.3509M103.746 67.6923C104.154 66.2245 104.562 64.7522 104.957 63.3224M104.957 63.3224L110.927 60.3509M116.806 98.6309C116.916 99.0945 117.056 99.6897 117.204 100.335M118.204 105.273C118.181 104.966 118.063 104.319 117.902 103.525M117.204 100.335C117.443 101.382 117.705 102.561 117.902 103.525M117.204 100.335L128.593 94.4358M145.297 85.7835L146.346 86.9196M145.297 85.7835C146.055 83.4529 147.5 78.5645 147.22 77.6555C147.118 77.3251 145.535 78.1627 143.287 79.5587M145.297 85.7835L141.19 87.9111M146.346 86.9196C148.065 87.5314 151.677 88.755 152.377 88.755C153.076 88.755 153.017 89.629 152.901 90.0659C152.018 90.5358 150.93 91.1189 149.755 91.7541M146.346 86.9196L142.413 89.2156M117.902 103.525L128.593 97.2837M128.593 94.4358L129.741 88.755C130.201 88.426 130.7 88.0719 131.226 87.6994M128.593 94.4358L129.741 93.8413M128.593 97.2837C131.627 97.8639 137.991 98.7794 139.18 97.8006C139.331 97.6756 139.602 97.4918 139.966 97.2617M128.593 97.2837L132.007 95.2905M131.226 87.6994L129.741 93.8413M131.226 87.6994C132.374 86.8884 133.657 85.9901 134.985 85.0734M129.741 93.8413L133.062 92.1211M134.985 85.0734L133.062 92.1211M134.985 85.0734C136.636 83.9326 138.356 82.7634 139.966 81.698M133.062 92.1211L138.043 89.5408M139.966 81.698L138.043 89.5408M139.966 81.698C141.157 80.9102 142.288 80.1793 143.287 79.5587M138.043 89.5408L141.19 87.9111M143.287 79.5587L141.19 87.9111M142.413 89.2156L149.755 91.7541M142.413 89.2156L139.18 91.1034M149.755 91.7541C148.662 92.3448 147.494 92.9804 146.346 93.612M139.18 91.1034L146.346 93.612M139.18 91.1034L135.422 93.2973M146.346 93.612C144.949 94.3807 143.581 95.1434 142.413 95.8114M135.422 93.2973L142.413 95.8114M135.422 93.2973L132.007 95.2905M142.413 95.8114C141.415 96.3824 140.564 96.8843 139.966 97.2617M132.007 95.2905L139.966 97.2617M70.4854 111.478C70.1795 111.478 68.5627 110.779 67.7324 113.182C66.9022 115.586 64.7609 119.475 64.4113 119.956C64.0617 120.436 65.1105 122.621 65.5912 122.621C66.0719 122.621 66.5963 122.796 66.9459 122.053C67.2955 121.31 68.1257 120.742 68.4753 120.873C68.8249 121.005 69.3493 121.485 69.9174 122.053C70.4854 122.621 70.7913 123.495 71.2283 123.452C71.6653 123.408 73.3259 123.058 73.457 122.403C73.5881 121.747 73.457 120.83 73.457 120.393C73.457 119.956 72.1897 117.596 72.0586 116.984C71.9275 116.372 71.2283 114.668 71.2283 114.319C71.2283 113.969 71.2283 111.828 71.2283 111.784C71.2283 111.749 70.7331 111.566 70.4854 111.478ZM83.5076 94.4358C81.7597 94.9747 78.2988 96.813 78.4386 99.8544C78.6134 103.656 77.1713 110.255 77.1713 111.478C77.1713 112.702 77.652 116.154 78.7445 116.416C79.8369 116.678 81.8471 116.46 82.4589 116.722C83.0706 116.984 86.7413 117.203 87.2657 117.509C87.7901 117.815 90.8927 117.509 91.5919 117.509C92.291 117.509 94.8256 115.367 94.7819 114.668C94.7382 113.969 95.6558 110.429 95.6558 109.643C95.6558 108.856 94.3012 100.291 93.9079 99.8544C93.5146 99.4174 92.1162 96.6644 90.7616 96.0963C89.4069 95.5283 87.7464 94.4358 87.2657 94.4358C86.785 94.4358 83.8135 94.3341 83.5076 94.4358ZM63.887 96.577C62.2119 97.4073 58.8179 99.2252 58.6431 99.8544C58.4247 100.641 56.633 103.307 56.4582 104.312C56.2834 105.317 56.196 107.021 55.9775 107.414C55.759 107.808 55.1036 107.545 55.5406 108.245C55.9775 108.944 56.2397 109.949 56.4582 110.211C56.6767 110.473 56.9826 112.92 57.5944 113.401C58.2062 113.882 59.8667 115.586 60.4785 115.848C61.0903 116.11 63.3626 116.416 63.887 116.416C64.4113 116.416 63.013 118.208 63.45 118.208C63.887 118.208 64.1492 118.295 65.329 115.848C66.5089 113.401 67.3392 111.522 67.6451 111.26C67.951 110.998 69.9174 110.823 69.9174 110.517C69.9174 110.211 71.3595 109.643 71.709 109.206C72.0586 108.769 72.4082 107.808 72.0586 108.026C71.709 108.245 71.3594 108.769 69.9174 109.206C68.7637 109.555 68.1257 109.643 67.951 109.643C68.0092 108.667 68.1956 106.654 68.4753 106.409C68.8249 106.103 69.6115 103.569 69.9174 103.044C70.2233 102.52 70.8351 100.816 70.8351 100.335C70.8351 99.8544 71.709 98.3687 71.709 97.8006C71.709 97.2325 71.3594 95.8778 69.9174 95.6593C68.7637 95.4845 65.4164 96.1983 63.887 96.577Z" stroke="black" stroke-width="0.349588"/>
</svg>
