<svg width="1311" height="1620" viewBox="0 0 1311 1620" fill="none" xmlns="http://www.w3.org/2000/svg">
<path d="M51.9127 1199.96H88.3633L126.862 1293.88H128.5L166.998 1199.96H203.449V1339.75H174.78V1248.76H173.62L137.442 1339.07H117.92L81.7422 1248.42H80.5818V1339.75H51.9127V1199.96ZM251.896 1339.75H220.224L268.483 1199.96H306.572L354.764 1339.75H323.091L288.074 1231.9H286.982L251.896 1339.75ZM249.917 1284.8H324.729V1307.88H249.917V1284.8ZM277.084 1186.44L291.555 1155.38H318.449L297.63 1186.44H277.084ZM417.784 1291.15H442.904L455.532 1307.4L467.955 1321.87L491.368 1351.22H463.791L447.682 1331.43L439.422 1319.68L417.784 1291.15ZM493.484 1269.86C493.484 1285.1 490.594 1298.07 484.815 1308.76C479.081 1319.46 471.254 1327.63 461.334 1333.27C451.459 1338.87 440.355 1341.66 428.023 1341.66C415.6 1341.66 404.451 1338.84 394.576 1333.2C384.701 1327.56 376.897 1319.39 371.163 1308.69C365.429 1298 362.562 1285.05 362.562 1269.86C362.562 1254.61 365.429 1241.64 371.163 1230.95C376.897 1220.25 384.701 1212.11 394.576 1206.51C404.451 1200.87 415.6 1198.05 428.023 1198.05C440.355 1198.05 451.459 1200.87 461.334 1206.51C471.254 1212.11 479.081 1220.25 484.815 1230.95C490.594 1241.64 493.484 1254.61 493.484 1269.86ZM463.518 1269.86C463.518 1259.98 462.039 1251.65 459.081 1244.87C456.169 1238.09 452.051 1232.95 446.726 1229.45C441.402 1225.94 435.168 1224.19 428.023 1224.19C420.879 1224.19 414.644 1225.94 409.32 1229.45C403.996 1232.95 399.855 1238.09 396.897 1244.87C393.984 1251.65 392.528 1259.98 392.528 1269.86C392.528 1279.73 393.984 1288.06 396.897 1294.84C399.855 1301.62 403.996 1306.76 409.32 1310.26C414.644 1313.77 420.879 1315.52 428.023 1315.52C435.168 1315.52 441.402 1313.77 446.726 1310.26C452.051 1306.76 456.169 1301.62 459.081 1294.84C462.039 1288.06 463.518 1279.73 463.518 1269.86ZM601.727 1199.96H631.283V1290.74C631.283 1300.94 628.849 1309.86 623.979 1317.5C619.156 1325.15 612.398 1331.11 603.706 1335.38C595.015 1339.62 584.889 1341.73 573.331 1341.73C561.727 1341.73 551.579 1339.62 542.887 1335.38C534.195 1331.11 527.438 1325.15 522.614 1317.5C517.79 1309.86 515.378 1300.94 515.378 1290.74V1199.96H544.935V1288.22C544.935 1293.54 546.095 1298.27 548.416 1302.41C550.782 1306.56 554.104 1309.81 558.382 1312.18C562.66 1314.54 567.642 1315.73 573.331 1315.73C579.065 1315.73 584.048 1314.54 588.28 1312.18C592.557 1309.81 595.856 1306.56 598.177 1302.41C600.544 1298.27 601.727 1293.54 601.727 1288.22V1199.96ZM685.157 1199.96V1339.75H655.601V1199.96H685.157ZM826.403 1199.96V1339.75H800.874L740.055 1251.77H739.031V1339.75H709.475V1199.96H735.413L795.755 1287.88H796.983V1199.96H826.403ZM874.919 1339.75H843.246L891.506 1199.96H929.595L977.786 1339.75H946.114L911.096 1231.9H910.004L874.919 1339.75ZM872.939 1284.8H947.752V1307.88H872.939V1284.8ZM1067.26 1240.16C1066.71 1234.66 1064.37 1230.38 1060.23 1227.33C1056.09 1224.28 1050.47 1222.76 1043.37 1222.76C1038.54 1222.76 1034.47 1223.44 1031.15 1224.8C1027.83 1226.12 1025.28 1227.97 1023.5 1230.33C1021.77 1232.7 1020.91 1235.38 1020.91 1238.39C1020.82 1240.89 1021.34 1243.07 1022.48 1244.94C1023.66 1246.81 1025.28 1248.42 1027.33 1249.79C1029.37 1251.11 1031.74 1252.27 1034.42 1253.27C1037.11 1254.22 1039.98 1255.04 1043.03 1255.73L1055.58 1258.73C1061.68 1260.09 1067.28 1261.91 1072.38 1264.19C1077.47 1266.46 1081.89 1269.26 1085.62 1272.59C1089.35 1275.91 1092.24 1279.82 1094.29 1284.33C1096.38 1288.83 1097.45 1294 1097.5 1299.82C1097.45 1308.38 1095.27 1315.79 1090.94 1322.07C1086.67 1328.31 1080.48 1333.15 1072.38 1336.61C1064.32 1340.03 1054.61 1341.73 1043.23 1341.73C1031.94 1341.73 1022.11 1340 1013.74 1336.54C1005.41 1333.09 998.907 1327.97 994.219 1321.19C989.578 1314.36 987.143 1305.92 986.916 1295.86H1015.52C1015.84 1300.55 1017.18 1304.46 1019.54 1307.6C1021.96 1310.7 1025.16 1313.04 1029.17 1314.63C1033.22 1316.18 1037.79 1316.95 1042.89 1316.95C1047.89 1316.95 1052.24 1316.23 1055.93 1314.77C1059.66 1313.31 1062.55 1311.29 1064.6 1308.69C1066.64 1306.1 1067.67 1303.12 1067.67 1299.75C1067.67 1296.61 1066.73 1293.97 1064.87 1291.83C1063.05 1289.7 1060.36 1287.88 1056.81 1286.37C1053.31 1284.87 1049.01 1283.51 1043.91 1282.28L1028.69 1278.46C1016.9 1275.59 1007.6 1271.11 1000.77 1265.01C993.946 1258.91 990.556 1250.7 990.602 1240.37C990.556 1231.9 992.809 1224.51 997.359 1218.18C1001.96 1211.86 1008.26 1206.92 1016.27 1203.37C1024.28 1199.82 1033.38 1198.05 1043.57 1198.05C1053.95 1198.05 1063 1199.82 1070.74 1203.37C1078.52 1206.92 1084.57 1211.86 1088.9 1218.18C1093.22 1224.51 1095.45 1231.83 1095.58 1240.16H1067.26ZM1204.19 1341.8C1194.54 1341.8 1186.21 1340.07 1179.2 1336.61C1172.2 1333.15 1166.8 1328.47 1163.03 1322.55C1159.29 1316.59 1157.43 1309.95 1157.43 1302.62C1157.43 1297.16 1158.52 1292.31 1160.7 1288.08C1162.89 1283.85 1165.94 1279.96 1169.85 1276.41C1173.76 1272.81 1178.32 1269.24 1183.5 1265.69L1210.6 1247.88C1214.11 1245.65 1216.68 1243.3 1218.32 1240.84C1219.95 1238.34 1220.77 1235.63 1220.77 1232.72C1220.77 1229.95 1219.66 1227.37 1217.43 1225.01C1215.2 1222.64 1212.04 1221.48 1207.94 1221.53C1205.21 1221.53 1202.84 1222.14 1200.84 1223.37C1198.84 1224.55 1197.27 1226.12 1196.13 1228.08C1195.04 1229.99 1194.49 1232.13 1194.49 1234.5C1194.49 1237.41 1195.31 1240.37 1196.95 1243.37C1198.59 1246.37 1200.77 1249.56 1203.5 1252.93C1206.23 1256.25 1209.21 1259.84 1212.45 1263.71L1278.73 1339.75H1248.42L1193.13 1278.18C1189.49 1274.04 1185.85 1269.72 1182.21 1265.21C1178.61 1260.66 1175.61 1255.84 1173.2 1250.74C1170.78 1245.6 1169.58 1240.03 1169.58 1234.02C1169.58 1227.24 1171.15 1221.14 1174.29 1215.73C1177.47 1210.31 1181.93 1206.03 1187.67 1202.89C1193.4 1199.71 1200.09 1198.11 1207.74 1198.11C1215.2 1198.11 1221.64 1199.64 1227.05 1202.69C1232.51 1205.69 1236.7 1209.7 1239.61 1214.7C1242.57 1219.66 1244.05 1225.12 1244.05 1231.08C1244.05 1237.68 1242.41 1243.67 1239.13 1249.04C1235.9 1254.36 1231.35 1259.14 1225.48 1263.37L1196.95 1283.92C1193.08 1286.74 1190.22 1289.63 1188.35 1292.59C1186.53 1295.5 1185.62 1298.3 1185.62 1300.98C1185.62 1304.3 1186.44 1307.28 1188.08 1309.92C1189.71 1312.56 1192.04 1314.66 1195.04 1316.2C1198.04 1317.71 1201.57 1318.46 1205.62 1318.46C1210.53 1318.46 1215.38 1317.34 1220.16 1315.11C1224.98 1312.84 1229.35 1309.63 1233.26 1305.49C1237.22 1301.3 1240.39 1296.34 1242.75 1290.61C1245.12 1284.87 1246.3 1278.52 1246.3 1271.56H1270.4C1270.4 1280.12 1269.46 1287.83 1267.6 1294.7C1265.73 1301.53 1263.14 1307.49 1259.82 1312.59C1256.5 1317.64 1252.7 1321.78 1248.42 1325.01C1247.05 1325.87 1245.73 1326.69 1244.46 1327.47C1243.18 1328.24 1241.87 1329.06 1240.5 1329.92C1235.31 1334.11 1229.51 1337.14 1223.09 1339C1216.72 1340.87 1210.42 1341.8 1204.19 1341.8ZM44.5663 1572.75H12.8938L61.1534 1432.96H99.2422L147.434 1572.75H115.761L80.7439 1464.9H79.6517L44.5663 1572.75ZM42.5868 1517.8H117.399V1540.88H42.5868V1517.8ZM164.259 1572.75V1432.96H219.413C229.971 1432.96 238.981 1434.85 246.444 1438.62C253.953 1442.35 259.664 1447.66 263.577 1454.53C267.536 1461.35 269.516 1469.39 269.516 1478.62C269.516 1487.91 267.514 1495.89 263.509 1502.58C259.504 1509.23 253.702 1514.32 246.103 1517.87C238.549 1521.42 229.402 1523.2 218.662 1523.2H181.734V1499.44H213.884C219.527 1499.44 224.214 1498.67 227.946 1497.12C231.677 1495.57 234.453 1493.25 236.273 1490.16C238.139 1487.06 239.072 1483.22 239.072 1478.62C239.072 1473.98 238.139 1470.07 236.273 1466.88C234.453 1463.7 231.654 1461.28 227.877 1459.65C224.146 1457.96 219.436 1457.12 213.748 1457.12H193.816V1572.75H164.259ZM239.755 1509.13L274.499 1572.75H241.871L207.877 1509.13H239.755ZM290.403 1432.96H326.854L365.352 1526.88H366.991L405.489 1432.96H441.94V1572.75H413.271V1481.76H412.11L375.933 1572.07H356.41L320.233 1481.42H319.072V1572.75H290.403V1432.96ZM490.387 1572.75H458.714L506.974 1432.96H545.063L593.254 1572.75H561.582L526.564 1464.9H525.472L490.387 1572.75ZM488.407 1517.8H563.22V1540.88H488.407V1517.8ZM659.636 1572.75H610.08V1432.96H660.046C674.108 1432.96 686.212 1435.76 696.36 1441.35C706.508 1446.9 714.312 1454.89 719.773 1465.31C725.279 1475.73 728.033 1488.2 728.033 1502.72C728.033 1517.28 725.279 1529.79 719.773 1540.26C714.312 1550.73 706.463 1558.76 696.224 1564.36C686.03 1569.95 673.834 1572.75 659.636 1572.75ZM639.636 1547.43H658.408C667.145 1547.43 674.494 1545.88 680.456 1542.79C686.463 1539.65 690.968 1534.8 693.971 1528.25C697.02 1521.65 698.544 1513.14 698.544 1502.72C698.544 1492.39 697.02 1483.95 693.971 1477.39C690.968 1470.84 686.485 1466.02 680.524 1462.92C674.563 1459.83 667.213 1458.28 658.476 1458.28H639.636V1547.43ZM779.483 1432.96V1572.75H749.927V1432.96H779.483ZM803.801 1572.75V1432.96H833.357V1548.38H893.289V1572.75H803.801ZM912.863 1572.75V1432.96H942.419V1490.64H1002.42V1432.96H1031.91V1572.75H1002.42V1515.01H942.419V1572.75H912.863ZM1080.37 1572.75H1048.7L1096.96 1432.96H1135.05L1183.24 1572.75H1151.57L1116.55 1464.9H1115.46L1080.37 1572.75ZM1078.39 1517.8H1153.2V1540.88H1078.39V1517.8ZM1272.71 1473.16C1272.16 1467.66 1269.82 1463.38 1265.68 1460.33C1261.54 1457.28 1255.92 1455.76 1248.82 1455.76C1244 1455.76 1239.92 1456.44 1236.6 1457.8C1233.28 1459.12 1230.73 1460.97 1228.96 1463.33C1227.23 1465.7 1226.36 1468.38 1226.36 1471.39C1226.27 1473.89 1226.79 1476.07 1227.93 1477.94C1229.12 1479.81 1230.73 1481.42 1232.78 1482.79C1234.83 1484.11 1237.19 1485.27 1239.88 1486.27C1242.56 1487.22 1245.43 1488.04 1248.48 1488.73L1261.04 1491.73C1267.14 1493.09 1272.73 1494.91 1277.83 1497.19C1282.93 1499.46 1287.34 1502.26 1291.07 1505.59C1294.8 1508.91 1297.69 1512.82 1299.74 1517.33C1301.83 1521.83 1302.9 1527 1302.95 1532.82C1302.9 1541.38 1300.72 1548.79 1296.4 1555.07C1292.12 1561.31 1285.93 1566.15 1277.83 1569.61C1269.77 1573.03 1260.06 1574.73 1248.68 1574.73C1237.4 1574.73 1227.57 1573 1219.19 1569.54C1210.87 1566.09 1204.36 1560.97 1199.67 1554.19C1195.03 1547.36 1192.6 1538.92 1192.37 1528.86H1220.97C1221.29 1533.55 1222.63 1537.46 1225 1540.6C1227.41 1543.7 1230.62 1546.04 1234.62 1547.63C1238.67 1549.18 1243.24 1549.95 1248.34 1549.95C1253.35 1549.95 1257.69 1549.23 1261.38 1547.77C1265.11 1546.31 1268 1544.29 1270.05 1541.69C1272.1 1539.1 1273.12 1536.12 1273.12 1532.75C1273.12 1529.61 1272.19 1526.97 1270.32 1524.83C1268.5 1522.7 1265.82 1520.88 1262.27 1519.37C1258.76 1517.87 1254.46 1516.51 1249.37 1515.28L1234.14 1511.46C1222.36 1508.59 1213.05 1504.11 1206.23 1498.01C1199.4 1491.91 1196.01 1483.7 1196.05 1473.37C1196.01 1464.9 1198.26 1457.51 1202.81 1451.18C1207.41 1444.86 1213.71 1439.92 1221.72 1436.37C1229.73 1432.82 1238.83 1431.05 1249.02 1431.05C1259.4 1431.05 1268.46 1432.82 1276.19 1436.37C1283.97 1439.92 1290.03 1444.86 1294.35 1451.18C1298.67 1457.51 1300.9 1464.83 1301.04 1473.16H1272.71Z" fill="white"/>
<path d="M430.655 704.53L1119.27 15.9122C1118.39 32.6015 1115.65 49.2923 1107.52 70.4313C1096.72 98.4921 1076.31 134.628 1037.59 188.786C960.549 296.549 812.023 474.31 525.808 799.682L430.655 704.53Z" fill="#D9D9D9" stroke="black" stroke-width="12.8562"/>
<rect x="95.1169" y="1015.94" width="543.187" height="171.487" rx="6.35136" transform="rotate(-45 95.1169 1015.94)" fill="#D9D9D9" stroke="black" stroke-width="12.7027"/>
<path d="M1225.99 919.596C1263.24 956.846 1241.51 1038.59 1225.99 1074.8C1174.25 1116.19 1096.65 1095.5 1075.95 1095.5C1055.26 1095.5 522.385 686.786 475.823 697.134C429.261 707.481 232.666 759.216 160.236 712.654C87.8062 666.092 36.0708 614.357 20.5501 562.621C5.02946 510.886 5.02946 340.159 51.5914 371.2C98.1534 402.241 211.971 629.877 356.831 485.018C472.719 369.13 274.054 247.035 160.236 200.473C153.338 191.85 154.028 171.501 211.971 159.084C284.401 143.564 434.434 159.084 522.385 231.514C592.745 289.458 606.886 441.905 605.161 510.886C796.583 631.602 1188.74 882.347 1225.99 919.596Z" fill="#D9D9D9" stroke="black" stroke-width="20.6942"/>
</svg>
