<svg width="175" height="176" viewBox="0 0 175 176" fill="none" xmlns="http://www.w3.org/2000/svg">
<circle cx="87.5" cy="88" r="87.5" fill="url(#paint0_radial_187_1090)"/>
<circle cx="87.0002" cy="88.0002" r="81.55" fill="url(#paint1_radial_187_1090)"/>
<path d="M65.1289 53.8513C62.1387 54.1407 60.9892 57.1872 60.7882 58.6743C59.9201 62.5327 63.3203 65.2658 65.1289 66.15H91.7761L64.2849 93.7618H32.0912C30.4836 94.4049 27.22 96.8968 27.0271 101.72C26.8341 106.543 32.1716 108.794 34.8645 109.316C44.5909 109.396 64.8637 109.509 68.1433 109.316C71.423 109.123 73.2075 107.226 73.6898 106.302L84.0593 96.2939L93.7053 106.302C89.7263 110.321 79.9838 120.168 72.8458 127.402C63.9232 136.446 72.7252 140.545 77.1865 141.51C80.7555 142.281 83.6574 138.937 84.6622 137.169C90.3694 131.623 102.893 119.396 107.33 114.863C112.877 109.195 112.515 109.437 113.118 105.337C113.793 101.864 105.763 95.1283 101.784 92.1943L114.324 80.1368L120.353 86.1655C121.124 86.9372 121.88 86.9694 122.161 86.889C128.632 86.9292 141.984 86.9855 143.624 86.889C145.673 86.7684 147.603 84.4775 147.964 80.1368C148.254 76.6642 143.825 74.8314 141.574 74.3491H126.381C120.553 68.6017 108.416 56.6487 106.486 54.8159C104.557 52.9832 101.824 53.0073 100.699 53.2484C90.0881 53.3288 68.1192 53.5619 65.1289 53.8513Z" fill="#050505" stroke="black" stroke-width="2.57353"/>
<circle cx="126.984" cy="49.028" r="13.7852" fill="#050505" stroke="black" stroke-width="2.57353"/>
<defs>
<radialGradient id="paint0_radial_187_1090" cx="0" cy="0" r="1" gradientUnits="userSpaceOnUse" gradientTransform="translate(87.5 88) rotate(79.5793) scale(113.826)">
<stop stop-color="#740202"/>
<stop offset="0.963542" stop-color="#DD2222"/>
</radialGradient>
<radialGradient id="paint1_radial_187_1090" cx="0" cy="0" r="1" gradientUnits="userSpaceOnUse" gradientTransform="translate(87.0002 88.0002) rotate(79.5793) scale(106.086)">
<stop stop-color="#FF7A7A"/>
<stop offset="0.963542" stop-color="#DD2222"/>
</radialGradient>
</defs>
</svg>
