<svg width="176" height="176" viewBox="0 0 176 176" fill="none" xmlns="http://www.w3.org/2000/svg">
<circle cx="88" cy="88" r="87.5" fill="url(#paint0_radial_187_1095)"/>
<circle cx="88.0002" cy="88.0002" r="81.55" fill="url(#paint1_radial_187_1095)"/>
<path d="M65.6289 53.8513C62.6387 54.1407 61.4892 57.1872 61.2882 58.6743C60.4201 62.5327 63.8203 65.2658 65.6289 66.15H92.2761L64.7849 93.7618H32.5912C30.9836 94.4049 27.72 96.8968 27.5271 101.72C27.3341 106.543 32.6716 108.794 35.3645 109.316C45.0909 109.396 65.3637 109.509 68.6433 109.316C71.923 109.123 73.7075 107.226 74.1898 106.302L84.5593 96.2939L94.2053 106.302C90.2263 110.321 80.4838 120.168 73.3458 127.402C64.4232 136.446 73.2252 140.545 77.6865 141.51C81.2555 142.281 84.1574 138.937 85.1622 137.169C90.8694 131.623 103.393 119.396 107.83 114.863C113.377 109.195 113.015 109.437 113.618 105.337C114.293 101.864 106.263 95.1283 102.284 92.1943L114.824 80.1368L120.853 86.1655C121.624 86.9372 122.38 86.9694 122.661 86.889C129.132 86.9292 142.484 86.9855 144.124 86.889C146.173 86.7684 148.103 84.4775 148.464 80.1368C148.754 76.6642 144.325 74.8314 142.074 74.3491H126.881C121.053 68.6017 108.916 56.6487 106.986 54.8159C105.057 52.9832 102.324 53.0073 101.199 53.2484C90.5881 53.3288 68.6192 53.5619 65.6289 53.8513Z" fill="#050505" stroke="black" stroke-width="2.57353"/>
<circle cx="127.484" cy="49.028" r="13.7852" fill="#050505" stroke="black" stroke-width="2.57353"/>
<defs>
<radialGradient id="paint0_radial_187_1095" cx="0" cy="0" r="1" gradientUnits="userSpaceOnUse" gradientTransform="translate(88 88) rotate(79.5793) scale(113.826)">
<stop stop-color="#020616"/>
<stop offset="0.963542" stop-color="#2256DD"/>
</radialGradient>
<radialGradient id="paint1_radial_187_1095" cx="0" cy="0" r="1" gradientUnits="userSpaceOnUse" gradientTransform="translate(88.0002 88.0002) rotate(79.5793) scale(106.086)">
<stop stop-color="#7A97FF"/>
<stop offset="0.963542" stop-color="#2256DD"/>
</radialGradient>
</defs>
</svg>
