<svg width="175" height="176" viewBox="0 0 175 176" fill="none" xmlns="http://www.w3.org/2000/svg">
<circle cx="87.5" cy="88" r="87.5" fill="url(#paint0_radial_187_1075)"/>
<circle cx="87.5002" cy="88.0002" r="81.55" fill="url(#paint1_radial_187_1075)"/>
<path d="M65.1294 53.8513C62.1392 54.1407 60.9897 57.1872 60.7887 58.6743C59.9206 62.5327 63.3208 65.2658 65.1294 66.15H91.7766L64.2854 93.7618H32.0917C30.4841 94.4049 27.2205 96.8968 27.0276 101.72C26.8346 106.543 32.1721 108.794 34.865 109.316C44.5914 109.396 64.8642 109.509 68.1438 109.316C71.4235 109.123 73.208 107.226 73.6903 106.302L84.0598 96.2939L93.7058 106.302C89.7268 110.321 79.9843 120.168 72.8463 127.402C63.9237 136.446 72.7257 140.545 77.187 141.51C80.756 142.281 83.6579 138.937 84.6627 137.169C90.3699 131.623 102.894 119.396 107.331 114.863C112.877 109.195 112.516 109.437 113.118 105.337C113.794 101.864 105.763 95.1283 101.784 92.1943L114.324 80.1368L120.353 86.1655C121.125 86.9372 121.88 86.9694 122.162 86.889C128.633 86.9292 141.984 86.9855 143.624 86.889C145.674 86.7684 147.603 84.4775 147.965 80.1368C148.254 76.6642 143.825 74.8314 141.574 74.3491H126.382C120.554 68.6017 108.416 56.6487 106.487 54.8159C104.558 52.9832 101.825 53.0073 100.699 53.2484C90.0886 53.3288 68.1197 53.5619 65.1294 53.8513Z" fill="#050505" stroke="black" stroke-width="2.57353"/>
<circle cx="126.985" cy="49.028" r="13.7852" fill="#050505" stroke="black" stroke-width="2.57353"/>
<defs>
<radialGradient id="paint0_radial_187_1075" cx="0" cy="0" r="1" gradientUnits="userSpaceOnUse" gradientTransform="translate(87.5 88) rotate(79.5793) scale(113.826)">
<stop stop-color="#003F30"/>
<stop offset="1" stop-color="#0ED9B4"/>
</radialGradient>
<radialGradient id="paint1_radial_187_1075" cx="0" cy="0" r="1" gradientUnits="userSpaceOnUse" gradientTransform="translate(87.5002 88.0002) rotate(79.5793) scale(106.086)">
<stop stop-color="#DBFFF6"/>
<stop offset="1" stop-color="#0ED9B4"/>
</radialGradient>
</defs>
</svg>
