<svg width="175" height="175" viewBox="0 0 175 175" fill="none" xmlns="http://www.w3.org/2000/svg">
<circle cx="87.5" cy="87.5" r="87.5" fill="#BF8C07"/>
<circle cx="87.5002" cy="87.5002" r="81.55" fill="url(#paint0_radial_187_1085)"/>
<path d="M65.1289 53.3513C62.1387 53.6407 60.9892 56.6872 60.7882 58.1743C59.9201 62.0327 63.3203 64.7658 65.1289 65.65H91.7761L64.2849 93.2618H32.0912C30.4836 93.9049 27.22 96.3968 27.0271 101.22C26.8341 106.043 32.1716 108.294 34.8645 108.816C44.5909 108.896 64.8637 109.009 68.1433 108.816C71.423 108.623 73.2075 106.726 73.6898 105.802L84.0593 95.7939L93.7053 105.802C89.7263 109.821 79.9838 119.668 72.8458 126.902C63.9232 135.946 72.7252 140.045 77.1865 141.01C80.7555 141.781 83.6574 138.437 84.6622 136.669C90.3694 131.123 102.893 118.896 107.33 114.363C112.877 108.695 112.515 108.937 113.118 104.837C113.793 101.364 105.763 94.6283 101.784 91.6943L114.324 79.6368L120.353 85.6655C121.124 86.4372 121.88 86.4694 122.161 86.389C128.632 86.4292 141.984 86.4855 143.624 86.389C145.673 86.2684 147.603 83.9775 147.964 79.6368C148.254 76.1642 143.825 74.3314 141.574 73.8491H126.381C120.553 68.1017 108.416 56.1487 106.486 54.3159C104.557 52.4832 101.824 52.5073 100.699 52.7484C90.0881 52.8288 68.1192 53.0619 65.1289 53.3513Z" fill="#050505" stroke="black" stroke-width="2.57353"/>
<circle cx="126.984" cy="48.528" r="13.7852" fill="#050505" stroke="black" stroke-width="2.57353"/>
<defs>
<radialGradient id="paint0_radial_187_1085" cx="0" cy="0" r="1" gradientUnits="userSpaceOnUse" gradientTransform="translate(87.5002 87.5002) rotate(79.5793) scale(106.086)">
<stop stop-color="#FFF5DB"/>
<stop offset="1" stop-color="#D9A00E"/>
</radialGradient>
</defs>
</svg>
